<svg width="125" height="251" viewBox="0 0 125 251" fill="none" xmlns="http://www.w3.org/2000/svg">
<path d="M59.0933 7.69305L47.5996 13.0792C48.0298 9.85055 48.8588 6.80997 50.083 4.03553C53.1422 4.81064 56.1709 6.0537 59.0933 7.69305ZM87.453 36.4953C88.3571 36.9543 89.5959 38.1776 90.0524 39.062L95.5646 49.7533C95.6689 49.9576 95.6874 50.1873 95.6131 50.4056C95.5706 50.5303 95.4576 50.7586 95.1783 50.8895L88.4331 54.0508C88.6129 48.0483 87.5995 41.6911 85.4198 35.4641L87.453 36.4953ZM68.2009 63.5307L61.4555 66.6906C61.1768 66.8217 60.9165 66.7664 60.7864 66.7221C60.6564 66.6778 60.417 66.5629 60.2757 66.2887L54.763 55.5985C54.3073 54.7119 54.0474 53.0295 54.2186 52.0662L54.6044 49.8988C58.4446 55.3488 63.1065 59.999 68.2009 63.5307ZM47.7448 1.57542C44.5828 8.01424 43.4515 15.8215 44.4721 24.1558C44.575 24.9959 45.3576 25.6118 46.2208 25.5307C47.084 25.4495 47.7006 24.7046 47.597 23.8649C47.2945 21.3957 47.1982 18.9816 47.2943 16.6437L62.2425 9.64001C69.1093 14.2966 75.1917 21.1605 79.4078 29.3362C85.6081 41.3609 86.993 54.7008 83.2705 65.0157L77.9748 54.7463C77.5818 53.9842 76.6351 53.6618 75.8593 54.0257C75.0849 54.3876 74.7738 55.3008 75.1667 56.0591L80.4624 66.3323C69.6223 62.8415 59.387 53.6473 53.1862 41.6223C51.858 39.0455 50.7297 36.3769 49.8347 33.6895C49.5657 32.8822 48.6768 32.4245 47.8507 32.6656C47.0244 32.9091 46.5731 33.76 46.8426 34.5676C47.7871 37.4034 48.9769 40.2195 50.378 42.9376C50.9225 43.9936 51.5004 45.0264 52.103 46.0405C52.0861 46.0977 52.064 46.1531 52.0534 46.2131L51.1152 51.4801C50.8292 53.0954 51.1904 55.4304 51.9542 56.9136L57.4675 67.604C57.9511 68.543 58.7813 69.2538 59.8053 69.6026C60.8293 69.9514 61.9204 69.8962 62.8776 69.4468L71.2903 65.5051C74.8577 67.5889 78.5884 69.124 82.361 70.0142L83.7465 72.7032C84.139 73.4625 85.0863 73.7852 85.8607 73.4233C86.2495 73.2397 86.521 72.9205 86.6465 72.5522C86.7717 72.1844 86.7511 71.767 86.5548 71.3854L85.1709 68.6996C85.644 67.6754 86.0681 66.6202 86.4381 65.5338C87.2929 63.0245 87.8719 60.357 88.1834 57.5902L96.5994 53.6465C97.5559 53.1993 98.2683 52.4091 98.6038 51.4243C98.94 50.4372 98.8577 49.3774 98.374 48.4384L92.8611 37.7469C92.0961 36.2633 90.376 34.5645 88.86 33.7964L83.912 31.2858C83.8563 31.2574 83.7983 31.2396 83.7415 31.2183C83.2674 30.1454 82.7609 29.0777 82.2156 28.0221C77.6441 19.1544 70.965 11.7297 63.4074 6.76297C63.2872 6.65529 63.1523 6.57155 63.0079 6.50411C58.6972 3.73098 54.1104 1.75324 49.4711 0.766624C48.7631 0.616745 48.0516 0.95101 47.7448 1.57542Z" fill="#F2CD13" fill-opacity="0.2"/>
<path d="M48.5339 30.0807C48.6207 29.8258 48.6384 29.5454 48.5715 29.262C48.5159 29.0316 48.4629 28.8014 48.4113 28.571C48.2264 27.7433 47.387 27.2018 46.5381 27.3621C45.6895 27.5231 45.15 28.3258 45.3358 29.1526C45.3909 29.3961 45.4469 29.6386 45.5046 29.8836C45.7008 30.7089 46.5466 31.2394 47.3935 31.0677C47.9503 30.9552 48.3681 30.5675 48.5339 30.0807Z" fill="#F2CD13" fill-opacity="0.2"/>
<path d="M59.6035 30.0042C59.1818 29.1883 59.1101 28.2663 59.4006 27.4135C59.6913 26.5601 60.3109 25.8735 61.1429 25.4847C61.9759 25.093 62.9232 25.0449 63.8102 25.347C64.6971 25.6491 65.4176 26.2652 65.8389 27.0842C66.2608 27.9014 66.3323 28.8221 66.0416 29.6755C65.7511 30.5283 65.1325 31.2139 64.2989 31.6035C63.4663 31.9941 62.5191 32.0435 61.6322 31.7414C60.7446 31.4391 60.0246 30.8218 59.6035 30.0042ZM60.6512 34.6214C62.3373 35.1956 64.1379 35.1033 65.7204 34.3614C67.3035 33.6196 68.4795 32.3168 69.0322 30.6941C69.5851 29.0708 69.4489 27.3211 68.6477 25.7672C67.847 24.2135 66.4771 23.0413 64.7911 22.467C63.1057 21.893 61.3045 21.9851 59.7214 22.7268C58.1394 23.469 56.9623 24.7714 56.4093 26.3946C55.8566 28.0174 55.9935 29.7673 56.7941 31.321C57.5953 32.8749 58.9658 34.0473 60.6512 34.6214Z" fill="#F2CD13" fill-opacity="0.2"/>
<path d="M93.7634 88.2356C94.1518 88.0531 94.4231 87.7345 94.5488 87.3656C94.674 86.9978 94.654 86.5787 94.4569 86.1994L90.8375 79.1761C90.4442 78.4152 89.498 78.0929 88.7226 78.4558C87.9462 78.8195 87.6352 79.7327 88.0287 80.4931L91.648 87.515C92.0413 88.2759 92.988 88.5984 93.7634 88.2356Z" fill="#F2CD13" fill-opacity="0.2"/>
<path d="M103.651 84.9572C104.038 84.7757 104.31 84.4579 104.435 84.0896C104.561 83.7207 104.54 83.3019 104.344 82.9217L97.1563 68.9819C96.7641 68.2214 95.8168 67.8987 95.0414 68.2616C94.266 68.6244 93.9554 69.5364 94.3481 70.2972L101.535 84.2367C101.928 84.9974 102.875 85.3201 103.651 84.9572Z" fill="#F2CD13" fill-opacity="0.2"/>
<path d="M85.3588 93.0272C85.4845 92.6583 85.4639 92.239 85.2678 91.8587L78.0795 77.9188C77.6881 77.156 76.7414 76.8335 75.9652 77.1986C75.1892 77.5613 74.8784 78.4739 75.2717 79.2348L82.4594 93.1745C82.8512 93.9362 83.799 94.259 84.5742 93.8949C84.9617 93.7134 85.2336 93.3949 85.3588 93.0272Z" fill="#F2CD13" fill-opacity="0.2"/>
<path d="M94.2905 92.6432L95.213 94.4322C95.6057 95.1929 96.553 95.5156 97.3279 95.1526C97.7168 94.9703 97.987 94.6532 98.1126 94.2843C98.2385 93.9149 98.2184 93.4976 98.0216 93.1158L97.0989 91.3274C96.7066 90.5655 95.7599 90.2431 94.984 90.607C94.2086 90.9699 93.8976 91.883 94.2905 92.6432Z" fill="#F2CD13" fill-opacity="0.2"/>
<path d="M100.931 250.522H1.28815C0.572999 250.522 0 249.945 0 249.234C0 248.523 0.572999 247.946 1.28815 247.946H100.931C101.642 247.946 102.219 248.523 102.219 249.234C102.219 249.945 101.642 250.522 100.931 250.522Z" fill="#F2CD13" fill-opacity="0.2"/>
<path d="M31.5263 250.351C30.8155 250.351 30.2382 249.773 30.2382 249.062V212.966C30.2382 212.256 29.8246 211.761 29.4541 211.761H16.2583C15.8878 211.761 15.4742 212.256 15.4742 212.966V249.062C15.4742 249.773 14.8969 250.351 14.1861 250.351C13.4752 250.351 12.8979 249.773 12.8979 249.062L12.8979 212.966C12.8979 210.882 14.4058 209.185 16.2583 209.185H29.4541C31.3066 209.185 32.8145 210.882 32.8145 212.966V249.062C32.8145 249.773 32.2372 250.351 31.5263 250.351Z" fill="#F2CD13" fill-opacity="0.2"/>
<path d="M27.7787 211.231C27.0678 211.231 26.4906 210.655 26.4906 209.943V202.45H19.2227V209.943C19.2227 210.655 18.6454 211.231 17.9346 211.231C17.2237 211.231 16.6465 210.655 16.6465 209.943V201.161C16.6465 200.45 17.2237 199.873 17.9346 199.873H27.7787C28.4895 199.873 29.0668 200.45 29.0668 201.161V209.943C29.0668 210.655 28.4895 211.231 27.7787 211.231Z" fill="#F2CD13" fill-opacity="0.2"/>
<path d="M22.8545 201.5C22.1437 201.5 21.5664 200.923 21.5664 200.212V185.205C21.5664 184.494 22.1437 183.917 22.8545 183.917C23.5697 183.917 24.1427 184.494 24.1427 185.205V200.212C24.1427 200.923 23.5697 201.5 22.8545 201.5Z" fill="#F2CD13" fill-opacity="0.2"/>
<path d="M38.0865 250.351C37.3756 250.351 36.7983 249.773 36.7983 249.062V183.039C36.7983 180.261 39.0601 178 41.8389 178H66.21C68.9844 178 71.2462 180.261 71.2462 183.039V212.769C71.2462 213.481 70.6689 214.058 69.9581 214.058C69.2472 214.058 68.6699 213.481 68.6699 212.769V183.039C68.6699 181.682 67.5628 180.577 66.21 180.577H41.8389C40.4775 180.577 39.3746 181.682 39.3746 183.039V249.062C39.3746 249.773 38.7973 250.351 38.0865 250.351Z" fill="#F2CD13" fill-opacity="0.2"/>
<path d="M83.3966 250.217C82.6815 250.217 82.1042 249.64 82.1042 248.929V215.56C82.1042 214.892 81.5614 214.349 80.8936 214.349H62.7736C62.1058 214.349 61.563 214.892 61.563 215.56V248.929C61.563 249.64 60.9857 250.217 60.2705 250.217C59.5597 250.217 58.9824 249.64 58.9824 248.929V215.56C58.9824 213.471 60.6841 211.772 62.7736 211.772H80.8936C82.983 211.772 84.6848 213.471 84.6848 215.56V248.929C84.6848 249.64 84.1074 250.217 83.3966 250.217Z" fill="#F2CD13" fill-opacity="0.2"/>
<path d="M78.0849 221.291H65.2725C64.5617 221.291 63.9844 220.714 63.9844 220.002C63.9844 219.291 64.5617 218.714 65.2725 218.714H78.0849C78.7957 218.714 79.373 219.291 79.373 220.002C79.373 220.714 78.7957 221.291 78.0849 221.291Z" fill="#F2CD13" fill-opacity="0.2"/>
<path d="M78.0849 226.329H65.2725C64.5617 226.329 63.9844 225.752 63.9844 225.04C63.9844 224.329 64.5617 223.752 65.2725 223.752H78.0849C78.7957 223.752 79.373 224.329 79.373 225.04C79.373 225.752 78.7957 226.329 78.0849 226.329Z" fill="#F2CD13" fill-opacity="0.2"/>
<path d="M45.3131 197.705H48.6734V189.374H45.3131V197.705ZM49.9616 200.282H44.025C43.3141 200.282 42.7368 199.704 42.7368 198.993V188.086C42.7368 187.375 43.3141 186.798 44.025 186.798H49.9616C50.6724 186.798 51.2497 187.375 51.2497 188.086V198.993C51.2497 199.704 50.6724 200.282 49.9616 200.282Z" fill="#F2CD13" fill-opacity="0.2"/>
<path d="M45.3131 214.108H48.6734V205.777H45.3131V214.108ZM49.9616 216.685H44.025C43.3141 216.685 42.7368 216.108 42.7368 215.396V204.489C42.7368 203.778 43.3141 203.201 44.025 203.201H49.9616C50.6724 203.201 51.2497 203.778 51.2497 204.489V215.396C51.2497 216.108 50.6724 216.685 49.9616 216.685Z" fill="#F2CD13" fill-opacity="0.2"/>
<path d="M57.3321 197.705H60.6925V189.374H57.3321V197.705ZM61.9806 200.282H56.044C55.3332 200.282 54.7559 199.704 54.7559 198.993V188.086C54.7559 187.375 55.3332 186.798 56.044 186.798H61.9806C62.6915 186.798 63.2688 187.375 63.2688 188.086V198.993C63.2688 199.704 62.6915 200.282 61.9806 200.282Z" fill="#F2CD13" fill-opacity="0.2"/>
<path d="M31.5263 218.303H14.1861C13.4752 218.303 12.8979 217.725 12.8979 217.014C12.8979 216.303 13.4752 215.726 14.1861 215.726H31.5263C32.2372 215.726 32.8145 216.303 32.8145 217.014C32.8145 217.725 32.2372 218.303 31.5263 218.303Z" fill="#F2CD13" fill-opacity="0.2"/>
<path d="M31.5263 223.351H14.1861C13.4752 223.351 12.8979 222.774 12.8979 222.062C12.8979 221.351 13.4752 220.774 14.1861 220.774H31.5263C32.2372 220.774 32.8145 221.351 32.8145 222.062C32.8145 222.774 32.2372 223.351 31.5263 223.351Z" fill="#F2CD13" fill-opacity="0.2"/>
</svg>
