<svg width="132" height="197" viewBox="0 0 132 197" fill="none" xmlns="http://www.w3.org/2000/svg">
<path d="M11.2497 150.56C7.72763 151.176 5.36557 154.56 5.98464 158.103L11.1848 187.866C11.8039 191.41 15.1734 193.792 18.6955 193.177L69.5055 184.299C73.0281 183.684 75.3902 180.301 74.7711 176.757L69.5709 146.993C68.9518 143.45 65.5824 141.068 62.0597 141.683L11.2497 150.56ZM69.86 186.329L19.05 195.206C14.4087 196.017 9.9701 192.884 9.15546 188.221L3.95531 158.457C3.14073 153.795 6.25394 149.342 10.8952 148.531L61.7052 139.654C66.3465 138.843 70.7857 141.976 71.6003 146.639L76.8004 176.402C77.6151 181.065 74.5013 185.518 69.86 186.329Z" fill="#F2CD13" fill-opacity="0.2"/>
<path d="M15.9497 161.766L18.5667 161.309L17.7282 156.509L15.1111 156.966L15.9497 161.766ZM19.1619 163.296L16.064 163.837C15.0777 164.009 14.1349 163.349 13.963 162.364L13.0391 157.076C12.8671 156.092 13.53 155.151 14.5164 154.979L17.6142 154.438C18.6002 154.265 19.5429 154.926 19.7148 155.91L20.6387 161.198C20.8107 162.182 20.1479 163.124 19.1619 163.296Z" fill="#F2CD13" fill-opacity="0.2"/>
<path d="M58.8247 154.275L61.4421 153.818L60.6035 149.018L57.9861 149.475L58.8247 154.275ZM62.0365 155.805L58.939 156.346C57.9527 156.519 57.0099 155.858 56.838 154.874L55.9141 149.586C55.7421 148.601 56.405 147.661 57.3914 147.488L60.4889 146.947C61.4756 146.775 62.4182 147.435 62.5902 148.419L63.5141 153.707C63.686 154.691 63.0232 155.633 62.0365 155.805Z" fill="#F2CD13" fill-opacity="0.2"/>
<path d="M46.45 142.321L49.1797 141.844L48.244 136.489C48.2335 136.421 47.689 132.813 45.4791 131.212C44.5462 130.536 43.4578 130.318 42.1518 130.546L26.2033 133.333C24.8946 133.561 23.9431 134.137 23.295 135.093C22.0165 136.978 22.2737 139.964 22.4804 140.955L23.4226 146.344L26.1523 145.867L25.4206 141.003C25.259 139.924 25.2749 139.06 25.4703 138.285C25.817 136.912 26.958 135.989 28.6836 135.688L40.6169 133.603C42.3426 133.301 43.7291 133.782 44.5208 134.957C44.968 135.62 45.2755 136.427 45.4888 137.498L46.45 142.321ZM51.5632 143.518L44.8226 144.696L43.4687 137.901C43.3107 137.107 43.1021 136.538 42.8129 136.109C42.4932 135.634 41.8737 135.474 40.9715 135.632L29.0382 137.717C28.1357 137.875 27.6074 138.235 27.4679 138.79C27.3412 139.291 27.338 139.898 27.4579 140.698L28.4883 147.55L21.7477 148.728L20.4576 141.343C20.4262 141.196 19.5648 136.922 21.5901 133.937C22.5547 132.515 23.9877 131.629 25.8487 131.303L41.7973 128.517C43.6584 128.192 45.307 128.54 46.6969 129.55C49.6141 131.672 50.2526 135.985 50.2782 136.168L51.5632 143.518Z" fill="#F2CD13" fill-opacity="0.2"/>
<path d="M71.1932 150.283L5.57764 161.747L5.22307 159.717L70.8386 148.253L71.1932 150.283Z" fill="#F2CD13" fill-opacity="0.2"/>
<path d="M28.6572 135.691L40.6414 133.597L40.1687 130.891L28.1845 132.985L28.6572 135.691ZM43.0253 135.272L26.9824 138.075L25.8006 131.31L41.8435 128.507L43.0253 135.272Z" fill="#F2CD13" fill-opacity="0.2"/>
<path d="M48.2173 180.613L55.6714 181.366L52.5959 174.534L48.2173 180.613ZM57.5202 183.584C57.4286 183.6 57.3342 183.604 57.2395 183.594L46.2353 182.483C45.8689 182.446 45.5502 182.216 45.3996 181.881C45.2483 181.545 45.2874 181.155 45.5027 180.856L51.9671 171.881C52.1818 171.583 52.5396 171.422 52.9066 171.459C53.2725 171.496 53.5913 171.725 53.7419 172.061L58.2824 182.147C58.433 182.482 58.3939 182.873 58.1786 183.172C58.0193 183.393 57.7815 183.538 57.5202 183.584Z" fill="#F2CD13" fill-opacity="0.2"/>
<path d="M62.3682 166.846C60.6894 167.14 59.5626 168.744 59.8558 170.422C60.1491 172.101 61.753 173.228 63.4319 172.934C65.1104 172.641 66.2372 171.037 65.9439 169.358C65.6507 167.68 64.0468 166.553 62.3682 166.846ZM63.7865 174.964C60.9889 175.452 58.3153 173.574 57.8265 170.777C57.3377 167.979 59.2161 165.306 62.0137 164.817C64.8112 164.328 67.4845 166.206 67.9733 169.004C68.4621 171.802 66.584 174.475 63.7865 174.964Z" fill="#F2CD13" fill-opacity="0.2"/>
<path d="M60.2544 173.204L59.0016 171.569L65.5402 166.559L66.7931 168.195L60.2544 173.204Z" fill="#F2CD13" fill-opacity="0.2"/>
<path d="M103 18.8004C97.3755 18.8004 92.7998 23.3761 92.7998 29.0006C92.7998 34.6248 97.3755 39.2005 103 39.2005C108.625 39.2005 113.199 34.6248 113.199 29.0006C113.199 23.3761 108.625 18.8004 103 18.8004ZM103 41.197C96.2742 41.197 90.8032 35.7257 90.8032 29.0006C90.8032 22.2751 96.2742 16.8038 103 16.8038C109.723 16.8038 115.198 22.2751 115.198 29.0006C115.198 35.7257 109.723 41.197 103 41.197Z" fill="#F2CD13" fill-opacity="0.2"/>
<path d="M103.002 13.7559C102.45 13.7559 102.003 13.3092 102.003 12.7577V0.99794C102.003 0.447138 102.45 -0.00019455 103.002 -0.00019455C103.553 -0.00019455 104 0.447138 104 0.99794V12.7577C104 13.3092 103.553 13.7559 103.002 13.7559Z" fill="#F2CD13" fill-opacity="0.2"/>
<path d="M94.8787 15.9314C94.5338 15.9314 94.198 15.7525 94.0134 15.432L88.1328 5.24786C87.8574 4.76949 88.0207 4.1586 88.4981 3.88487C88.9744 3.6078 89.5863 3.77135 89.8617 4.24871L95.7423 14.4339C96.0177 14.9109 95.8544 15.5218 95.3771 15.7972C95.2195 15.8883 95.0479 15.9314 94.8787 15.9314Z" fill="#F2CD13" fill-opacity="0.2"/>
<path d="M88.9334 21.8777C88.7639 21.8777 88.5923 21.8343 88.4351 21.7435L78.2509 15.8636C77.7729 15.5878 77.6099 14.9773 77.8853 14.5003C78.1611 14.0226 78.7727 13.8593 79.249 14.1347L89.4332 20.0146C89.9109 20.29 90.0741 20.9006 89.7984 21.3783C89.6141 21.6984 89.2779 21.8777 88.9334 21.8777Z" fill="#F2CD13" fill-opacity="0.2"/>
<path d="M86.7582 29.9968H74.9981C74.447 29.9968 74 29.5502 74 28.9987C74 28.4473 74.447 28.0003 74.9981 28.0003H86.7582C87.3097 28.0003 87.7567 28.4473 87.7567 28.9987C87.7567 29.5502 87.3097 29.9968 86.7582 29.9968Z" fill="#F2CD13" fill-opacity="0.2"/>
<path d="M78.7506 44.0002C78.4061 44.0002 78.0699 43.821 77.8853 43.5009C77.6099 43.0235 77.7729 42.4129 78.2509 42.1372L88.4351 36.257C88.9114 35.9819 89.523 36.1438 89.7984 36.6225C90.0741 37.0999 89.9109 37.7104 89.4332 37.9858L79.249 43.866C79.0918 43.9568 78.9202 44.0002 78.7506 44.0002Z" fill="#F2CD13" fill-opacity="0.2"/>
<path d="M88.9968 54.2495C88.8272 54.2495 88.6553 54.2061 88.4981 54.1153C88.0207 53.8396 87.8574 53.229 88.1328 52.7517L94.0134 42.5672C94.2888 42.0891 94.9004 41.9259 95.3771 42.2019C95.8544 42.4773 96.0177 43.0879 95.7423 43.5653L89.8617 53.7501C89.6771 54.0706 89.3413 54.2495 88.9968 54.2495Z" fill="#F2CD13" fill-opacity="0.2"/>
<path d="M103.002 58.001C102.45 58.001 102.003 57.554 102.003 57.0025V45.2424C102.003 44.6909 102.45 44.2443 103.002 44.2443C103.553 44.2443 104 44.6909 104 45.2424V57.0025C104 57.554 103.553 58.001 103.002 58.001Z" fill="#F2CD13" fill-opacity="0.2"/>
<path d="M117.003 54.2495C116.659 54.2495 116.322 54.0706 116.138 53.7501L110.26 43.5653C109.983 43.0879 110.146 42.4773 110.624 42.2019C111.101 41.9259 111.712 42.0891 111.989 42.5672L117.868 52.7517C118.145 53.229 117.981 53.8396 117.504 54.1153C117.344 54.2061 117.173 54.2495 117.003 54.2495Z" fill="#F2CD13" fill-opacity="0.2"/>
<path d="M127.251 44.0002C127.084 44.0002 126.91 43.9568 126.753 43.866L116.569 37.9858C116.091 37.7104 115.928 37.0999 116.205 36.6225C116.478 36.1438 117.089 35.9819 117.567 36.257L127.752 42.1372C128.229 42.4129 128.393 43.0235 128.119 43.5009C127.932 43.821 127.598 44.0002 127.251 44.0002Z" fill="#F2CD13" fill-opacity="0.2"/>
<path d="M131 29.9968H119.243C118.689 29.9968 118.245 29.5502 118.245 28.9987C118.245 28.4473 118.689 28.0003 119.243 28.0003H131C131.551 28.0003 131.998 28.4473 131.998 28.9987C131.998 29.5502 131.551 29.9968 131 29.9968Z" fill="#F2CD13" fill-opacity="0.2"/>
<path d="M117.069 21.8777C116.725 21.8777 116.388 21.6984 116.205 21.3783C115.928 20.9006 116.091 20.29 116.569 20.0146L126.753 14.1347C127.231 13.8593 127.842 14.0216 128.119 14.5003C128.393 14.9773 128.229 15.5878 127.752 15.8636L117.567 21.7435C117.41 21.8343 117.24 21.8777 117.069 21.8777Z" fill="#F2CD13" fill-opacity="0.2"/>
<path d="M111.121 15.9314C110.954 15.9314 110.781 15.8883 110.624 15.7972C110.146 15.5218 109.983 14.9109 110.26 14.4339L116.138 4.24871C116.416 3.77135 117.026 3.6078 117.504 3.88487C117.981 4.1586 118.145 4.76949 117.868 5.24786L111.989 15.432C111.802 15.7521 111.468 15.9314 111.121 15.9314Z" fill="#F2CD13" fill-opacity="0.2"/>
</svg>
