<svg width="163" height="215" viewBox="0 0 163 215" fill="none" xmlns="http://www.w3.org/2000/svg">
<path d="M10.3861 48.5393C8.89276 48.5393 7.67792 49.763 7.67792 51.2673V66.4046C7.67792 67.9086 8.89276 69.1319 10.3861 69.1319H41.8777C43.371 69.1319 44.5863 67.9086 44.5863 66.4046V51.2673C44.5863 49.763 43.371 48.5393 41.8777 48.5393H10.3861ZM41.8777 71.2454H10.3861C7.72737 71.2454 5.56445 69.0739 5.56445 66.4046V51.2673C5.56445 48.598 7.72737 46.4259 10.3861 46.4259H41.8777C44.5368 46.4259 46.6997 48.598 46.6997 51.2673V66.4046C46.6997 69.0739 44.5368 71.2454 41.8777 71.2454Z" fill="#F2CD13" fill-opacity="0.2"/>
<path d="M43.4371 76.3572H8.82629C3.95943 76.3572 0 72.4154 0 67.5705V36.4739C0 22.0648 11.7224 10.342 26.1319 10.342C40.5409 10.342 52.2637 22.0648 52.2637 36.4739V39.6287H50.1502V36.4739C50.1502 23.2302 39.3759 12.4555 26.1319 12.4555C12.8878 12.4555 2.11346 23.2302 2.11346 36.4739V67.5705C2.11346 71.25 5.12447 74.2437 8.82629 74.2437H43.4371C47.1389 74.2437 50.1502 71.25 50.1502 67.5705V43.5171H52.2637V67.5705C52.2637 72.4154 48.3043 76.3572 43.4371 76.3572Z" fill="#F2CD13" fill-opacity="0.2"/>
<path d="M6.69412 42.6987C6.11036 42.6987 5.63721 42.2256 5.63721 41.6419V34.2923C5.63721 23.4921 14.832 14.7054 26.1336 14.7054C37.4352 14.7054 46.6297 23.4921 46.6297 34.2923V35.6209C46.6297 36.2046 46.1569 36.6778 45.5732 36.6778C44.9894 36.6778 44.5163 36.2046 44.5163 35.6209V34.2923C44.5163 24.6571 36.2698 16.8188 26.1336 16.8188C15.9974 16.8188 7.75067 24.6571 7.75067 34.2923V41.6419C7.75067 42.2256 7.27752 42.6987 6.69412 42.6987Z" fill="#F2CD13" fill-opacity="0.2"/>
<path d="M38.345 56.6355H13.9195C8.43783 56.6355 6.37739 52.0054 6.05371 49.5573L8.14914 49.2799C8.17847 49.4909 8.93572 54.5221 13.9195 54.5221H38.345C43.3292 54.5221 44.0861 49.4909 44.1161 49.2764L46.2109 49.557C45.8872 52.0054 43.8271 56.6355 38.345 56.6355Z" fill="#F2CD13" fill-opacity="0.2"/>
<path d="M32.7625 11.8401H30.649C30.649 9.05559 28.6228 6.79408 26.132 6.79408C23.6415 6.79408 21.6149 9.05559 21.6149 11.8401H19.5015C19.5015 7.89303 22.4761 4.68098 26.132 4.68098C29.7878 4.68098 32.7625 7.89303 32.7625 11.8401Z" fill="#F2CD13" fill-opacity="0.2"/>
<path d="M37.5277 13.6265H35.4143C35.4143 6.84756 31.5973 2.11251 26.1318 2.11251C20.231 2.11251 16.8469 6.31045 16.8469 13.6265H14.7334C14.7334 7.03838 17.7278 -0.000587463 26.1318 -0.000587463C32.8414 -0.000587463 37.5277 5.60373 37.5277 13.6265Z" fill="#F2CD13" fill-opacity="0.2"/>
<path d="M46.6008 36.9222C46.3499 36.9222 46.099 37.0176 45.9082 37.2088C45.5269 37.5901 45.5269 38.2113 45.9085 38.5929L49.6764 42.3611C50.0591 42.7435 50.6796 42.7435 51.0609 42.3611C51.4422 41.9795 51.4422 41.3583 51.0605 40.977L47.2926 37.2088C47.1015 37.0176 46.8509 36.9222 46.6008 36.9222ZM50.3687 44.7598C49.5768 44.7598 48.7849 44.4584 48.1821 43.8555L44.4138 40.0873C43.2085 38.8812 43.2085 36.9201 44.4134 35.7144C45.6195 34.5084 47.5817 34.5084 48.787 35.7144L52.5556 39.4827C53.7606 40.6883 53.7606 42.6495 52.5556 43.8555C51.9528 44.4584 51.1602 44.7598 50.3687 44.7598Z" fill="#F2CD13" fill-opacity="0.2"/>
<path d="M115.489 168.443L114.805 165.784L155.661 155.267L114.775 144.743L115.459 142.083L161.51 153.937C162.116 154.093 162.54 154.64 162.54 155.267C162.54 155.893 162.116 156.44 161.51 156.596L115.489 168.443Z" fill="#F2CD13" fill-opacity="0.2"/>
<path d="M91.1424 168.466L45.0305 156.596C44.4241 156.44 44 155.892 44 155.266C44 154.64 44.4241 154.093 45.0305 153.936L91.1235 142.071L91.8084 144.731L50.8793 155.266L91.8268 165.807L91.1424 168.466Z" fill="#F2CD13" fill-opacity="0.2"/>
<path d="M114.173 168.069L90.5015 144.397L92.4422 142.456L116.114 166.128L114.173 168.069Z" fill="#F2CD13" fill-opacity="0.2"/>
<path d="M92.4798 168.032L90.5386 166.091L114.136 142.493L116.077 144.435L92.4798 168.032Z" fill="#F2CD13" fill-opacity="0.2"/>
<path d="M92.7421 143.764L90.0835 143.079L101.938 97.0294C102.094 96.423 102.641 95.9993 103.267 95.9993C103.894 95.9993 104.441 96.423 104.597 97.0294L116.444 143.05L113.785 143.734L103.267 102.878L92.7421 143.764Z" fill="#F2CD13" fill-opacity="0.2"/>
<path d="M103.268 214.54C102.641 214.54 102.094 214.116 101.938 213.509L90.0732 167.417L92.7319 166.732L103.268 207.661L113.809 166.713L116.467 167.398L104.597 213.509C104.441 214.116 103.894 214.54 103.268 214.54Z" fill="#F2CD13" fill-opacity="0.2"/>
<path d="M103.269 192.123C102.511 192.123 101.897 191.508 101.897 190.75V118.014C101.897 117.256 102.511 116.641 103.269 116.641C104.028 116.641 104.642 117.256 104.642 118.014V190.75C104.642 191.508 104.028 192.123 103.269 192.123Z" fill="#F2CD13" fill-opacity="0.2"/>
<path d="M139.639 155.755H66.9032C66.1449 155.755 65.5308 155.141 65.5308 154.383C65.5308 153.625 66.1449 153.01 66.9032 153.01H139.639C140.398 153.01 141.012 153.625 141.012 154.383C141.012 155.141 140.398 155.755 139.639 155.755Z" fill="#F2CD13" fill-opacity="0.2"/>
<path d="M110.225 187.529C109.597 187.529 109.03 187.095 108.886 186.456C108.721 185.716 109.187 184.982 109.926 184.816C121.295 182.27 130.295 173.278 132.854 161.912C133.02 161.172 133.753 160.712 134.494 160.873C135.234 161.041 135.699 161.775 135.532 162.514C132.741 174.912 122.926 184.717 110.527 187.496C110.426 187.518 110.325 187.529 110.225 187.529Z" fill="#F2CD13" fill-opacity="0.2"/>
<path d="M134.216 149.711C133.586 149.711 133.019 149.276 132.877 148.635C130.346 137.203 121.326 128.169 109.899 125.619C109.159 125.454 108.693 124.721 108.858 123.981C109.023 123.241 109.76 122.777 110.497 122.94C122.96 125.72 132.797 135.573 135.557 148.042C135.721 148.781 135.254 149.514 134.514 149.679C134.414 149.7 134.314 149.711 134.216 149.711Z" fill="#F2CD13" fill-opacity="0.2"/>
<path d="M72.3156 149.705C72.2178 149.705 72.1173 149.694 72.0177 149.672C71.2773 149.509 70.8105 148.776 70.9748 148.036C73.7363 135.568 83.5757 125.717 96.0403 122.939C96.7812 122.776 97.5138 123.239 97.6785 123.98C97.8438 124.72 97.3774 125.453 96.6375 125.618C85.2085 128.166 76.1869 137.198 73.6546 148.629C73.5127 149.269 72.9454 149.705 72.3156 149.705Z" fill="#F2CD13" fill-opacity="0.2"/>
<path d="M96.3161 187.531C96.217 187.531 96.116 187.52 96.015 187.498C83.6092 184.723 73.789 174.916 70.9972 162.513C70.8306 161.774 71.2951 161.039 72.0346 160.872C72.7773 160.708 73.5094 161.17 73.6756 161.91C76.2355 173.282 85.2392 182.274 96.6145 184.818C97.354 184.984 97.8199 185.718 97.6542 186.458C97.5114 187.097 96.9445 187.531 96.3161 187.531Z" fill="#F2CD13" fill-opacity="0.2"/>
<path d="M91.4658 144.774C91.1147 144.774 90.7636 144.64 90.4955 144.372L72.2087 126.085C71.6726 125.549 71.6726 124.68 72.2087 124.144C72.7449 123.608 73.6133 123.608 74.1495 124.144L92.4362 142.43C92.9728 142.967 92.9728 143.835 92.4362 144.372C92.1681 144.64 91.817 144.774 91.4658 144.774Z" fill="#F2CD13" fill-opacity="0.2"/>
<path d="M133.204 186.512C132.853 186.512 132.502 186.378 132.234 186.11L113.947 167.823C113.411 167.287 113.411 166.419 113.947 165.883C114.483 165.346 115.352 165.346 115.888 165.883L134.175 184.169C134.711 184.705 134.711 185.573 134.175 186.11C133.907 186.378 133.555 186.512 133.204 186.512Z" fill="#F2CD13" fill-opacity="0.2"/>
<path d="M114.917 144.774C114.566 144.774 114.215 144.64 113.947 144.372C113.411 143.835 113.411 142.967 113.947 142.43L132.234 124.144C132.77 123.608 133.638 123.608 134.175 124.144C134.711 124.68 134.711 125.549 134.175 126.085L115.888 144.372C115.62 144.64 115.269 144.774 114.917 144.774Z" fill="#F2CD13" fill-opacity="0.2"/>
<path d="M73.1791 186.512C72.828 186.512 72.4768 186.378 72.2087 186.11C71.6726 185.573 71.6726 184.705 72.2087 184.169L90.4955 165.883C91.0316 165.346 91.9001 165.346 92.4362 165.883C92.9728 166.419 92.9728 167.287 92.4362 167.823L74.1495 186.11C73.8814 186.378 73.5303 186.512 73.1791 186.512Z" fill="#F2CD13" fill-opacity="0.2"/>
</svg>
