<?xml version="1.0" encoding="utf-8"?>
<!-- Generator: Adobe Illustrator 21.1.0, SVG Export Plug-In . SVG Version: 6.00 Build 0)  -->
<svg version="1.1" id="Capa_1" xmlns="http://www.w3.org/2000/svg" xmlns:xlink="http://www.w3.org/1999/xlink" x="0px" y="0px"
	 viewBox="0 0 340.3 303.3" style="enable-background:new 0 0 340.3 303.3;" xml:space="preserve">
<style type="text/css">
	.st0{fill:#35BBCA;}
	.st1{fill:#FFFFFF;}
	.st2{fill:#FFFFFF;filter:url(#Adobe_OpacityMaskFilter);}
	.st3{mask:url(#mask0);}
	.st4{fill:#278B96;fill-opacity:0.15;}
	.st5{fill:#278B96;fill-opacity:0.45;}
	.st6{fill:#F26716;fill-opacity:0.31;}
	.st7{fill:#F39A00;fill-opacity:0.4;}
	.st8{fill:#798BF2;fill-opacity:0.43;}
	.st9{fill:#F2CD13;fill-opacity:0.25;}
	.st10{fill:#17282F;}
	.st11{fill:#F3F2F1;}
	.st12{fill:#B96357;}
	.st13{fill:#F8A58D;}
	.st14{fill:#F68260;}
	.st15{fill:#6F3430;}
	.st16{fill:#33535F;}
	.st17{fill:#20353D;}
	.st18{fill:#0F191D;}
	.st19{fill:#278B96;}
	.st20{fill:#9FA1A1;}
	.st21{fill:#185C64;}
	.st22{fill:#E7E8E5;}
	.st23{fill:#CC4341;}
	.st24{fill:#F2CD13;}
	.st25{fill:#DADBD8;}
	.st26{fill:#F2575D;}
	.st27{fill:#8F9192;}
	.st28{fill:#BFA520;}
	.st29{fill:#862B2C;}
	.st30{fill:#8BD996;}
	.st31{fill:#798BF2;}
</style>
<path class="st0" d="M1.8,136C11.7,53.5,57.5-8.8,140,1c82.5,9.9,188.3,37.8,178.4,120.3c-9.9,82.5-131.7,188.2-214.2,178.3
	C21.7,289.8-8.1,218.4,1.8,136z"/>
<path class="st1" d="M23,139C32.9,56.5,78.7-5.8,161.2,4.1c82.5,9.9,188.3,37.8,178.4,120.3S207.9,312.6,125.4,302.7
	S13.2,221.5,23,139z"/>
<defs>
	<filter id="Adobe_OpacityMaskFilter" filterUnits="userSpaceOnUse" x="4.9" y="43.6" width="335.2" height="217.1">
		<feColorMatrix  type="matrix" values="1 0 0 0 0  0 1 0 0 0  0 0 1 0 0  0 0 0 1 0"/>
	</filter>
</defs>
<mask maskUnits="userSpaceOnUse" x="4.9" y="43.6" width="335.2" height="217.1" id="mask0">
	<path class="st2" d="M21.3,149.4C26.6,65.3,69.4-0.5,153.5,4.9c84.1,5.3,192.9,27.6,187.6,111.7c-5.3,84.1-122.7,198.1-206.8,192.8
		C50.2,304.1,16,233.5,21.3,149.4z"/>
</mask>
<g class="st3">
	<path class="st4" d="M120.3,59c-1,0.2-2,0.6-2.9,1.2c-0.3,0.2-0.6,0.4-0.9,0.5l-1.8-15.3c-0.1-1.1-1.1-1.9-2.2-1.7l-15.4,2.8
		l0.2,1.8c0.1,0.4,0.2,0.8,0.4,1.2c0.4,0.7,0.7,1.5,0.8,2.4c0.5,3.8-2.2,7.5-6,8c-3.3,0.5-6.4-1.8-7-5.1c-0.2-1.2-0.1-2.4,0.2-3.4
		c0.1-0.5,0.2-1,0.1-1.5l-0.2-1.3l-15.6,2.8c-1.3,0.2-2.3,1.6-2.1,3l1.7,14.2l-1.1,0.2c-0.1,0-0.2,0-0.4,0.1c-1.4-0.8-3.1-1-4.9-0.7
		c-4.4,0.8-7.5,5.2-7,9.7c0.5,4.6,4.6,7.6,8.9,6.8c1.4-0.3,2.7-0.9,3.8-1.8c0.2-0.1,0.4-0.2,0.6-0.2l1.4-0.3l1.9,15.8
		c0.2,1.4,1.4,2.3,2.7,2.1l42.5-7.9c1.1-0.2,1.9-1.3,1.7-2.4l-1.9-16.1c0.3,0,0.5,0.1,0.8,0.1c1.4,0.4,2.9,0.4,4.5-0.2
		c3.1-1.1,5.2-4.3,5.2-7.7C128.5,61.4,124.6,58.2,120.3,59z"/>
	<path class="st5" d="M302.2,157.7c0.6,0.3,1.2,0.5,1.8,0.6c0.2,0,0.4,0.1,0.6,0.1l-4.9,8.6c-0.4,0.6-0.2,1.4,0.4,1.8l8.3,4.9l0.6-1
		c0.1-0.2,0.2-0.5,0.3-0.8c0.1-0.5,0.3-1.1,0.6-1.6c1.2-2.1,3.9-2.9,5.8-1.6c1.7,1.1,2.3,3.5,1.4,5.5c-0.3,0.7-0.8,1.3-1.4,1.7
		c-0.3,0.2-0.5,0.4-0.6,0.7l-0.4,0.7l8.4,5c0.7,0.4,1.7,0.1,2.1-0.6l4.6-7.9l0.6,0.3c0.1,0,0.1,0.1,0.2,0.1c0.4,1,1.1,1.8,2,2.4
		c2.4,1.4,5.5,0.4,6.9-2.1c1.5-2.6,0.7-5.7-1.6-7.1c-0.8-0.5-1.6-0.7-2.5-0.6c-0.1,0-0.3-0.1-0.4-0.2l-0.7-0.4l5.1-8.9
		c0.4-0.8,0.2-1.7-0.5-2.2l-22.9-13.5c-0.6-0.3-1.4-0.1-1.7,0.5l-5.2,9c-0.1-0.1-0.2-0.3-0.3-0.4c-0.5-0.8-1.2-1.4-2.2-1.8
		c-1.9-0.7-4.1,0.1-5.4,1.8C299.3,153.1,299.9,156.4,302.2,157.7z"/>
	<path class="st6" d="M308.4,255.9c0.4-0.3,0.8-0.7,1-1.2c0.1-0.2,0.2-0.3,0.3-0.4l4.1,6.1c0.3,0.4,0.9,0.5,1.4,0.2l6.3-4.8L321,255
		c-0.1-0.2-0.3-0.3-0.4-0.4c-0.3-0.2-0.6-0.5-0.9-0.8c-1-1.5-0.6-3.7,0.9-4.8c1.4-1,3.2-0.8,4.2,0.5c0.4,0.4,0.6,1,0.7,1.5
		c0,0.2,0.1,0.5,0.3,0.7l0.3,0.5l6.4-4.9c0.5-0.4,0.7-1.2,0.3-1.8l-3.8-5.6l0.4-0.3c0,0,0.1-0.1,0.2-0.1c0.8,0,1.6-0.3,2.3-0.8
		c1.8-1.4,2.2-4,1-5.8c-1.2-1.8-3.7-2.1-5.5-0.8c-0.6,0.5-1,1-1.3,1.7c-0.1,0.1-0.2,0.2-0.2,0.2l-0.6,0.4l-4.3-6.3
		c-0.4-0.5-1.1-0.7-1.7-0.2L302,241.2c-0.4,0.3-0.6,1-0.2,1.4l4.4,6.4c-0.1,0.1-0.3,0.1-0.4,0.1c-0.7,0.2-1.4,0.5-2,1.1
		c-1.1,1.2-1.4,3.1-0.6,4.5C304.2,256.8,306.6,257.2,308.4,255.9z"/>
	<path class="st7" d="M264.8,82.5c-0.8-0.3-1.6-0.4-2.3-0.3c-0.3,0-0.5,0-0.8,0l4.4-11.6c0.3-0.9-0.1-1.8-0.9-2.1L254,64.3l-0.5,1.4
		c-0.1,0.3-0.2,0.7-0.2,1c0,0.7-0.1,1.4-0.4,2c-1.1,2.9-4.3,4.4-7,3.3c-2.4-1-3.6-3.8-2.8-6.4c0.3-0.9,0.8-1.7,1.4-2.4
		c0.3-0.3,0.5-0.6,0.6-1l0.4-1l-11.4-4.3c-1-0.4-2.1,0.2-2.5,1.2l-4.1,10.7l-0.8-0.3c-0.1,0-0.2-0.1-0.3-0.1c-0.7-1.1-1.7-2-3-2.5
		c-3.2-1.2-6.9,0.6-8.2,4.1c-1.3,3.4,0.2,7.2,3.5,8.4c1.1,0.4,2.2,0.5,3.2,0.3c0.2,0,0.3,0.1,0.5,0.1l1,0.4l-4.6,12
		c-0.4,1,0.1,2.2,1.1,2.6l31.3,11.6c0.8,0.3,1.7-0.2,2-1l4.7-12.2c0.2,0.1,0.3,0.3,0.5,0.4c0.8,0.8,1.8,1.5,3.1,1.7
		c2.5,0.4,5.1-1,6.3-3.4C269.4,87.5,268,83.7,264.8,82.5z"/>
	<path class="st8" d="M7.9,185.6c0.7,0.3,1.4,0.5,2.2,0.5c0.3,0,0.5,0,0.7,0.1l-5,10.5c-0.4,0.8-0.1,1.7,0.6,2l10.2,4.9l0.6-1.2
		c0.1-0.3,0.2-0.6,0.2-0.9c0.1-0.6,0.2-1.3,0.5-1.9c1.3-2.6,4.3-3.8,6.7-2.5c2.1,1.1,3,3.9,2.1,6.3c-0.3,0.8-0.9,1.5-1.5,2.1
		c-0.3,0.2-0.5,0.5-0.7,0.9l-0.4,0.9l10.3,5c0.9,0.4,2,0,2.4-0.9l4.7-9.7l0.7,0.3c0.1,0,0.2,0.1,0.2,0.1c0.5,1.1,1.4,2,2.6,2.6
		c2.9,1.4,6.5,0,8-3.1c1.5-3.1,0.3-6.8-2.6-8.2c-1-0.5-2-0.6-3-0.5c-0.2,0-0.3-0.1-0.5-0.2l-0.9-0.4l5.2-10.9
		c0.5-0.9,0.1-2.1-0.8-2.5l-28.2-13.5c-0.7-0.3-1.6,0-2,0.8l-5.3,11.1c-0.2-0.1-0.3-0.3-0.4-0.4c-0.6-0.9-1.6-1.5-2.7-1.8
		c-2.3-0.6-4.8,0.5-6.1,2.6C4,180.5,5,184.3,7.9,185.6z"/>
	<path class="st9" d="M165.8,174.2c2.6,0,4.8,0.9,6.9,2.1c0.9,0.5,2,1,3.1,1l2.9,0.1l3.8-33.5c0.4-3.2-1.8-5.9-4.8-6.1l-30.3-1.9
		l0.1-0.7c0.2-1.3,0.6-2.6,1.3-3.8c1.8-3.1,2.8-6.7,2.6-10.7c-0.4-7.8-5.9-14.2-13.2-15.6c-10.1-1.9-19.8,5.9-20.9,16.4
		c-0.3,2.5,0,5,0.6,7.3c0.4,1.2,0.5,2.4,0.4,3.6l0,1.5l-1.8-0.1l-34.7-2.3c-3-0.2-5.8,2.2-6.1,5.4l-3.7,32.7l-2.6-0.2
		c-1.2-0.1-2.4-0.5-3.4-1.1c-2.7-1.7-6.1-2.5-9.7-2.1c-7.1,0.8-13.2,6.5-14.8,13.9c-2.2,10.1,4.4,19.3,13.8,19.9
		c2.3,0.2,4.5-0.2,6.6-1c1.1-0.4,2.2-0.6,3.3-0.5l3.3,0.2L64,238.7c-0.3,2.6,1.5,4.8,3.9,5l97.8,6.6c2.5,0.2,4.8-3,5.1-5.5l4.1-36.4
		l-4-0.3c-0.9-0.1-1.8,0.1-2.7,0.4c-1.8,0.6-3.7,0.9-5.6,0.8c-8.4-0.6-14.3-8.3-13-17.1C150.7,184.4,158.3,174.2,165.8,174.2z"/>
	<path class="st10" d="M165.8,174.2c0,0-0.1,0-0.3,0c-0.2,0-0.4,0-0.8,0.1c-0.7,0.1-1.7,0.3-3,0.9c-2.5,1.1-6,3.8-8.9,8.5
		c-1.4,2.3-2.8,5.2-3.3,8.5c-0.2,1.7-0.2,3.4,0.1,5.2c0.3,1.8,1,3.5,2,5.1c1,1.6,2.3,3.1,4,4.2c1.6,1.1,3.6,1.9,5.7,2.3
		c2.1,0.4,4.4,0.2,6.6-0.5c1.1-0.4,2.3-0.6,3.5-0.4c1.2,0.1,2.4,0.2,3.5,0.2l0.1,0l0,0.1c-0.6,5.8-1.3,11.9-2,18.3
		c-0.4,3.2-0.7,6.5-1.1,9.9c-0.2,1.7-0.4,3.4-0.6,5.2c-0.1,0.9-0.2,1.7-0.3,2.6c0,0.4-0.1,0.9-0.2,1.3c-0.1,0.4-0.3,0.9-0.5,1.3
		c-0.4,0.8-0.9,1.6-1.6,2.2c-0.7,0.6-1.5,1.1-2.4,1.2c-0.3,0-0.6,0-1,0c-0.1,0-0.2,0-0.4,0c-0.4,0-0.9-0.1-1.3-0.1
		c-0.9-0.1-1.8-0.1-2.6-0.2c-3.5-0.2-7.1-0.5-10.8-0.7c-7.3-0.5-15-1-22.8-1.5c-15.7-1.1-32.4-2.2-49.9-3.4
		c-2.2-0.1-4.4-0.3-6.6-0.4c-0.4,0-0.8-0.1-1.2-0.1c-0.7,0-1.4-0.1-2.2-0.2c-1.1-0.2-2.1-0.8-2.8-1.8c-0.7-0.9-0.9-2.2-0.8-3.4
		c0.1-1.2,0.3-2.4,0.4-3.5c0.3-2.4,0.5-4.7,0.8-7.1c1.1-9.6,2.1-19.3,3.2-29.2l0.1,0.1c-0.7,0-1.4-0.1-2.1-0.1c-0.2,0-0.4,0-0.6,0
		c-0.5,0-1-0.1-1.4,0c-0.7,0-1.4,0.2-2.1,0.4c-0.7,0.2-1.4,0.5-2.1,0.7c-2.8,0.7-5.8,0.7-8.6-0.2c-2.7-0.9-5.3-2.6-7.1-5
		c-1-1.1-1.7-2.5-2.3-3.9c-0.3-0.7-0.6-1.4-0.7-2.2c-0.1-0.4-0.2-0.7-0.3-1.1l-0.2-1.2c-0.4-3.8,0.3-7.8,2.2-11.1
		c1.9-3.4,4.9-6.1,8.2-7.6c1.7-0.8,3.5-1.2,5.3-1.3c1.8-0.1,3.6,0,5.3,0.5c0.9,0.2,1.7,0.5,2.5,0.9c0.4,0.2,0.8,0.4,1.2,0.6
		c0.4,0.2,0.7,0.4,1.1,0.6c1.2,0.6,2.5,0.7,3.8,0.7c0.4,0,0.8,0,1.3,0.1l-0.1,0.1c0.8-7.1,1.6-14.1,2.3-21c0.4-3.4,0.8-6.9,1.1-10.3
		c0.1-0.8,0.1-1.7,0.4-2.6c0.2-0.8,0.7-1.6,1.2-2.3c1.1-1.3,2.8-2.1,4.4-2.1c12.8,0.9,25.1,1.7,36.9,2.5L118,134c0-0.5,0-1,0-1.5v0
		l0,0c0.1-0.9,0-1.8-0.1-2.7c-0.1-0.4-0.2-0.9-0.3-1.3c-0.1-0.4-0.2-0.9-0.3-1.3c-0.3-1.8-0.4-3.7-0.2-5.5l0.2-1.4
		c0-0.2,0.1-0.5,0.1-0.7l0.2-0.7c0.1-0.4,0.2-0.9,0.4-1.3l0.5-1.3c0.1-0.2,0.2-0.4,0.3-0.6l0.3-0.6c0.2-0.4,0.4-0.8,0.7-1.2l0.7-1.1
		l0.8-1.1c1.1-1.4,2.4-2.6,3.9-3.6l0.5-0.4l0.6-0.3c0.4-0.2,0.7-0.4,1.1-0.6c0.8-0.3,1.5-0.7,2.4-1c1.6-0.6,3.3-0.8,4.9-0.9
		c0.8,0,1.6,0,2.4,0.1c0.4,0.1,0.8,0.1,1.2,0.2c0.4,0.1,0.8,0.2,1.2,0.3c3.1,0.9,5.8,2.6,7.8,4.9c2,2.3,3.4,5.2,3.9,8.3
		c0.6,3,0.3,6.2-0.7,9.1c-0.5,1.4-1.1,2.8-1.9,4.1c-0.4,0.6-0.6,1.3-0.8,2c-0.2,0.7-0.3,1.4-0.4,2.1l-0.1-0.1
		c8.2,0.5,15.9,1,23.1,1.5c1.8,0.1,3.5,0.2,5.2,0.3c0.4,0,0.9,0.1,1.3,0.1c0.4,0,0.8,0.1,1.3,0.1c0.8,0.1,1.6,0.5,2.3,1
		c1.3,1,2.1,2.6,2.1,4.3c0,0.8-0.1,1.6-0.2,2.4c-0.1,0.8-0.2,1.6-0.3,2.4c-1.4,12.5-2.6,22.5-3.3,29.5l0,0l0,0
		c-1.2-0.1-2.2-0.1-3.2-0.2c-1-0.1-1.9-0.5-2.6-0.9c-1.5-0.9-2.7-1.4-3.8-1.7c-1.1-0.3-1.9-0.4-2.4-0.4c-0.3,0-0.5,0-0.6,0
		C165.8,174.2,165.8,174.2,165.8,174.2s0.3,0,0.8,0c0.5,0,1.4,0.1,2.4,0.4c1.1,0.3,2.4,0.9,3.8,1.7c0.7,0.4,1.6,0.8,2.6,0.9
		c1,0.1,2.1,0.1,3.2,0.2l0,0c0.8-7,1.9-16.9,3.3-29.5c0.1-0.8,0.2-1.6,0.3-2.4c0.1-0.8,0.2-1.6,0.2-2.4c0-1.6-0.8-3.2-2.1-4.2
		c-0.6-0.5-1.4-0.8-2.2-1c-0.4-0.1-0.8-0.1-1.3-0.1c-0.4,0-0.8-0.1-1.3-0.1c-1.7-0.1-3.5-0.2-5.2-0.3c-7.1-0.5-14.9-0.9-23.1-1.5
		l-0.1,0l0-0.1c0.1-0.7,0.2-1.5,0.4-2.2c0.2-0.7,0.5-1.4,0.9-2.1c0.8-1.3,1.4-2.6,1.9-4.1c0.9-2.9,1.2-6,0.7-9
		c-0.5-3-1.9-5.9-3.9-8.2c-2-2.3-4.7-4-7.7-4.9c-0.4-0.1-0.8-0.2-1.2-0.3c-0.4-0.1-0.8-0.1-1.2-0.2c-0.8-0.1-1.6-0.1-2.4-0.1
		c-1.6,0.1-3.2,0.3-4.8,0.9c-0.8,0.2-1.6,0.6-2.3,0.9c-0.4,0.2-0.7,0.4-1.1,0.6l-0.6,0.3l-0.5,0.4c-1.4,1-2.7,2.2-3.8,3.6l-0.8,1.1
		l-0.7,1.1c-0.3,0.4-0.4,0.8-0.6,1.2l-0.3,0.6c-0.1,0.2-0.2,0.4-0.3,0.6l-0.5,1.3c-0.2,0.4-0.2,0.9-0.4,1.3l-0.2,0.7
		c-0.1,0.2-0.1,0.4-0.1,0.7l-0.2,1.3c-0.2,1.8-0.1,3.6,0.2,5.4c0.1,0.4,0.2,0.9,0.3,1.3c0.1,0.4,0.3,0.9,0.4,1.3
		c0.2,0.9,0.2,1.9,0.1,2.8l0,0c0,0.5,0,1,0,1.5l0,0.1l-0.1,0c-11.8-0.8-24.2-1.6-36.9-2.5c-1.6,0-3.2,0.8-4.2,2
		c-0.5,0.6-0.9,1.4-1.2,2.2c-0.2,0.8-0.3,1.7-0.4,2.5c-0.4,3.4-0.8,6.8-1.1,10.3c-0.8,6.9-1.5,13.9-2.3,21l0,0.1l-0.1,0
		c-0.9-0.1-1.7-0.1-2.6-0.2c-0.9-0.1-1.8-0.3-2.6-0.7c-0.4-0.2-0.8-0.4-1.2-0.6c-0.4-0.2-0.8-0.4-1.1-0.6c-0.8-0.4-1.6-0.7-2.4-0.9
		c-1.7-0.5-3.5-0.6-5.2-0.5c-1.8,0.2-3.5,0.6-5.2,1.3c-3.3,1.5-6.3,4.1-8.1,7.5c-1.9,3.3-2.6,7.2-2.2,11l0.2,1.1
		c0.1,0.4,0.2,0.7,0.3,1.1c0.2,0.8,0.5,1.4,0.7,2.2c0.6,1.4,1.3,2.7,2.3,3.8c1.8,2.3,4.3,4,7,4.9c2.7,0.9,5.7,1,8.5,0.2
		c0.7-0.2,1.4-0.4,2.1-0.7c0.7-0.2,1.4-0.4,2.1-0.4c0.5,0,1,0,1.5,0c0.2,0,0.4,0,0.6,0c0.7,0,1.4,0.1,2.1,0.1l0.1,0l0,0.1
		c-1.1,9.9-2.2,19.6-3.2,29.2c-0.3,2.4-0.5,4.8-0.8,7.1c-0.1,1.2-0.3,2.4-0.4,3.5c-0.2,1.2,0.1,2.3,0.7,3.2c0.6,0.9,1.6,1.5,2.7,1.7
		c0.7,0.1,1.4,0.1,2.1,0.2c0.4,0,0.8,0.1,1.2,0.1c2.2,0.1,4.4,0.3,6.6,0.4c17.5,1.2,34.2,2.3,49.9,3.4c7.9,0.5,15.5,1,22.8,1.5
		c3.7,0.2,7.3,0.5,10.8,0.7c0.9,0.1,1.8,0.1,2.6,0.2c0.4,0,0.9,0.1,1.3,0.1c0.1,0,0.2,0,0.3,0c0.3,0,0.6,0,0.9,0
		c0.8-0.1,1.7-0.5,2.3-1.1c0.7-0.6,1.2-1.3,1.6-2.1c0.2-0.4,0.4-0.8,0.5-1.2c0.1-0.4,0.2-0.9,0.2-1.3c0.1-0.9,0.2-1.8,0.3-2.6
		c0.2-1.7,0.4-3.5,0.6-5.2c0.4-3.4,0.8-6.7,1.1-9.9c0.7-6.5,1.4-12.6,2.1-18.3l0.1,0.1c-1.2-0.1-2.4-0.2-3.5-0.2
		c-1.2-0.1-2.3,0-3.4,0.4c-2.2,0.7-4.5,0.9-6.6,0.5c-2.1-0.3-4.1-1.1-5.7-2.3c-1.7-1.1-3-2.6-4-4.2c-1-1.6-1.6-3.4-2-5.2
		c-0.3-1.8-0.3-3.6-0.1-5.2c0.5-3.4,1.9-6.2,3.3-8.6c2.9-4.7,6.4-7.4,8.9-8.5c1.3-0.6,2.3-0.8,3-0.9c0.3-0.1,0.6-0.1,0.8-0.1
		C165.7,174.2,165.8,174.2,165.8,174.2z"/>
	<path class="st11" d="M298,186.3c-2.4-0.2-4.7,0.2-6.9,1c-0.8,0.3-1.5,0.5-2.3,0.5l4-35.5c0.3-2.6-1.5-4.9-4-5l-35.2-2.4l-0.5,4.2
		c-0.1,1,0,1.9,0.2,2.9c0.5,1.9,0.7,3.9,0.4,5.9c-1,8.9-8.8,15.6-17.3,14.6c-7.5-0.8-13-7.6-12.7-15.6c0.1-2.8,0.9-5.4,2.2-7.6
		c0.6-1,1-2.1,1.1-3.3l0.3-2.9l-35.6-2.5c-3.1-0.2-5.8,2.2-6.2,5.4l-3.7,33l-2.4-0.2c-0.3,0-0.6,0-0.8-0.1
		c-2.8-2.5-6.3-4.1-10.3-4.4c-10.1-0.7-19.2,7.3-20.4,17.9c-1.2,10.6,6,19.7,16.1,20.4c3.3,0.2,6.5-0.5,9.3-1.9
		c0.5-0.1,1-0.1,1.5-0.1l3.1,0.2l-4.1,36.8c-0.4,3.2,1.8,6,4.9,6.2l97.4,6.6c2.5,0.2,4.7-1.8,5-4.4l4.2-37.5
		c0.6,0.2,1.1,0.5,1.7,0.8c2.8,1.7,6.2,2.6,9.9,2.2c7.4-0.8,13.8-6.8,15.4-14.5C314.7,196.5,307.9,186.9,298,186.3z"/>
	<path class="st10" d="M298,186.3c0,0,0.4,0,1.1,0.1c0.3,0,0.8,0.1,1.3,0.2c0.3,0.1,0.5,0.1,0.8,0.2c0.3,0.1,0.6,0.2,0.9,0.3
		c0.3,0.1,0.7,0.2,1,0.4c0.4,0.2,0.7,0.3,1.1,0.5c0.2,0.1,0.4,0.2,0.6,0.3c0.2,0.1,0.4,0.2,0.6,0.4c0.4,0.3,0.8,0.5,1.2,0.8
		c1.6,1.2,3.2,3,4.4,5.4c1.2,2.4,2.1,5.5,1.9,8.9c0,0.4,0,0.9-0.1,1.3c-0.1,0.4-0.1,0.9-0.2,1.3c0,0.2-0.1,0.4-0.1,0.7
		c-0.1,0.2-0.1,0.4-0.2,0.7c-0.1,0.2-0.1,0.4-0.2,0.7c-0.1,0.2-0.2,0.4-0.2,0.7c-0.6,1.8-1.5,3.6-2.7,5.2c-1.2,1.6-2.7,3.1-4.5,4.3
		c-1.8,1.2-3.8,2.1-6,2.6c-0.5,0.1-1.1,0.2-1.7,0.3c-0.6,0.1-1.1,0.1-1.7,0.1c-1.1,0-2.3-0.1-3.4-0.3c-1.1-0.2-2.3-0.6-3.3-1.1
		c-1.1-0.5-2-1.2-3.2-1.6l0.1-0.1c-0.6,5.8-1.3,11.9-2,18.3c-0.4,3.2-0.7,6.5-1.1,9.9c-0.2,1.7-0.4,3.4-0.6,5.1
		c-0.1,0.9-0.2,1.7-0.3,2.6c0,0.4-0.1,0.9-0.1,1.3c0,0.2-0.1,0.4-0.1,0.7c-0.1,0.2-0.1,0.4-0.2,0.7c-0.6,1.7-2.2,3.1-3.9,3.4
		c-0.4,0.1-0.9,0-1.3,0c-0.4,0-0.9-0.1-1.3-0.1c-0.9-0.1-1.7-0.1-2.6-0.2c-3.5-0.2-7.1-0.5-10.7-0.7c-7.3-0.5-14.8-1-22.6-1.5
		c-15.6-1-32.1-2.2-49.4-3.3c-2.2-0.1-4.3-0.3-6.5-0.4c-1.1-0.1-2.2-0.1-3.3-0.2c-0.5,0-1.1-0.1-1.7-0.2c-0.5-0.2-1-0.4-1.5-0.7
		c-0.9-0.6-1.7-1.6-2-2.7c-0.2-0.5-0.3-1.1-0.3-1.7c0-0.6,0.1-1.2,0.1-1.8c0.3-2.3,0.5-4.7,0.8-7.1c1.1-9.5,2.1-19.1,3.2-28.9
		l0.1,0.1c-0.7,0-1.5-0.1-2.2-0.2c-0.1,0-0.3,0-0.4,0c-0.3,0-0.5,0-0.8,0c-0.4,0-0.8,0-1.2,0.1l0,0c-2.4,1.2-5,1.9-7.7,2
		c-2.7,0.1-5.3-0.5-7.8-1.6c-2.4-1.1-4.6-2.8-6.3-5c-1.7-2.2-2.9-4.8-3.5-7.6c-0.4-2-0.5-4.1-0.3-6.2c0.2-2.1,0.8-4.1,1.6-6
		c0.8-1.9,1.9-3.7,3.3-5.3c0.6-0.8,1.4-1.5,2.2-2.2l1.2-1c0.4-0.3,0.8-0.6,1.3-0.9c1.7-1.1,3.5-1.9,5.5-2.4c1.9-0.5,3.9-0.6,5.8-0.5
		c3.8,0.3,7.5,1.9,10.2,4.4l-0.1,0c0.7,0.1,1.4,0.1,2.1,0.2c0.4,0,0.8,0,1.1,0.1l-0.1,0.1c0.8-7,1.6-14,2.3-20.8
		c0.4-3.4,0.8-6.8,1.1-10.2l0.1-1.3c0-0.4,0.1-0.8,0.2-1.3c0.2-0.8,0.5-1.7,1-2.4c1-1.4,2.6-2.4,4.2-2.5c0.6-0.1,1.2,0,1.7,0
		c0.2,0,0.4,0,0.7,0c0.8,0.1,1.6,0.1,2.4,0.2c1.6,0.1,3.1,0.2,4.7,0.3c3.1,0.2,6.2,0.4,9.2,0.7c6.1,0.4,12.1,0.9,18,1.3l0.1,0l0,0.1
		c-0.1,0.9-0.2,1.8-0.3,2.6c-0.1,0.9-0.3,1.8-0.6,2.6c-0.2,0.4-0.4,0.8-0.6,1.2c-0.2,0.4-0.4,0.8-0.6,1.2c-0.4,0.8-0.7,1.6-0.9,2.4
		c-1,3.3-0.8,6.9,0.3,9.9c0.6,1.5,1.3,2.9,2.3,4.2c1,1.2,2.2,2.3,3.4,3.1c2.6,1.7,5.7,2.3,8.7,2.1c3-0.3,5.9-1.5,8.3-3.4
		c1.2-1,2.2-2.1,3.1-3.3c0.9-1.2,1.6-2.6,2.1-4c1-2.8,1.3-5.8,0.8-8.5c-0.1-0.7-0.3-1.3-0.4-2.1c-0.1-0.7-0.1-1.4,0-2.1
		c0.2-1.4,0.3-2.8,0.5-4.1l0-0.1l0.1,0c9.3,0.6,17.9,1.2,25.8,1.8c2,0.1,3.9,0.3,5.8,0.4c0.9,0.1,1.9,0.1,2.8,0.2c0.1,0,0.2,0,0.3,0
		c0.4,0,0.7,0,1.1,0.1c0.5,0.1,0.9,0.3,1.3,0.5c0.8,0.4,1.4,1.1,1.8,2c0.4,0.8,0.5,1.8,0.4,2.7c-0.2,1.8-0.4,3.5-0.6,5.2
		c-1.5,13.5-2.7,23.8-3.4,30.3l0,0c1.6-0.1,2.9-0.8,4.1-1.1c1.2-0.3,2.1-0.4,2.9-0.5c0.8-0.1,1.3,0,1.7,0
		C297.8,186.3,298,186.3,298,186.3s-0.2,0-0.6,0c-0.4,0-0.9,0-1.7,0c-0.8,0.1-1.7,0.2-2.9,0.5c-1.2,0.2-2.4,1-4.1,1.1l0,0l0,0
		c0.7-6.5,1.9-16.8,3.3-30.3c0.2-1.7,0.4-3.4,0.6-5.2c0.1-0.9,0-1.8-0.4-2.6c-0.4-0.8-1-1.5-1.8-1.9c-0.4-0.2-0.8-0.4-1.2-0.5
		c-0.3-0.1-0.7-0.1-1.1-0.1c-0.1,0-0.2,0-0.3,0c-0.9-0.1-1.9-0.1-2.8-0.2c-1.9-0.1-3.8-0.3-5.8-0.4c-7.9-0.5-16.5-1.1-25.8-1.7
		l0.1-0.1c-0.2,1.4-0.3,2.8-0.5,4.1c-0.1,0.7-0.1,1.4,0,2.1c0.1,0.7,0.3,1.3,0.4,2c0.5,2.8,0.3,5.8-0.8,8.7c-0.5,1.4-1.2,2.8-2.1,4
		c-0.9,1.3-2,2.4-3.1,3.4c-2.4,1.9-5.3,3.2-8.4,3.5c-3,0.3-6.2-0.4-8.8-2.1c-1.3-0.8-2.5-1.9-3.5-3.1c-1-1.2-1.8-2.7-2.4-4.2
		c-1.2-3.1-1.3-6.7-0.4-10.1c0.2-0.8,0.5-1.7,0.9-2.5c0.2-0.4,0.4-0.8,0.6-1.2s0.4-0.8,0.6-1.2c0.3-0.8,0.6-1.7,0.6-2.5
		c0.1-0.9,0.2-1.8,0.3-2.6l0.1,0.1c-5.9-0.4-11.9-0.8-18-1.3c-3.1-0.2-6.1-0.4-9.2-0.7c-1.6-0.1-3.1-0.2-4.7-0.3
		c-0.8-0.1-1.6-0.1-2.4-0.2c-0.2,0-0.4,0-0.7,0c-0.6,0-1.1-0.1-1.7,0c-1.6,0.2-3.1,1.1-4,2.4c-0.5,0.7-0.8,1.5-1,2.3
		c-0.1,0.4-0.1,0.8-0.2,1.2l-0.1,1.3c-0.4,3.4-0.8,6.8-1.1,10.2c-0.8,6.9-1.6,13.8-2.3,20.8l0,0.1l-0.1,0c-0.4,0-0.8-0.1-1.1-0.1
		c-0.7,0-1.4-0.1-2.1-0.2l0,0l0,0c-2.7-2.5-6.3-4.1-10.1-4.4c-1.9-0.1-3.8,0-5.7,0.5c-1.9,0.5-3.7,1.3-5.4,2.3
		c-0.4,0.3-0.8,0.5-1.2,0.8l-1.2,0.9c-0.7,0.7-1.5,1.4-2.1,2.2c-1.3,1.6-2.4,3.3-3.2,5.2c-0.8,1.9-1.3,3.9-1.5,5.9
		c-0.2,2-0.1,4.1,0.3,6.1c0.6,2.8,1.8,5.3,3.4,7.5c1.7,2.1,3.8,3.8,6.2,4.9c2.4,1.1,5,1.6,7.7,1.6c2.6-0.1,5.2-0.8,7.6-1.9l0,0l0,0
		c0.4-0.1,0.8-0.1,1.2-0.1c0.3,0,0.5,0,0.8,0c0.1,0,0.3,0,0.4,0c0.8,0.1,1.5,0.1,2.2,0.2l0.1,0l0,0.1c-1.1,9.8-2.2,19.5-3.2,28.9
		c-0.3,2.4-0.5,4.7-0.8,7.1c-0.1,0.6-0.2,1.2-0.1,1.7c0,0.6,0.1,1.1,0.3,1.7c0.4,1.1,1.1,2,2,2.6c0.4,0.3,0.9,0.5,1.5,0.7
		c0.5,0.1,1.1,0.2,1.6,0.2c1.1,0.1,2.2,0.1,3.3,0.2c2.2,0.1,4.4,0.3,6.5,0.4c17.3,1.2,33.9,2.3,49.4,3.4c7.8,0.5,15.3,1,22.6,1.5
		c3.6,0.2,7.2,0.5,10.7,0.7c0.9,0.1,1.7,0.1,2.6,0.2c0.4,0,0.9,0.1,1.3,0.1c0.4,0,0.9,0,1.3,0c1.7-0.2,3.2-1.6,3.8-3.2
		c0.1-0.4,0.2-0.8,0.3-1.3c0-0.4,0.1-0.9,0.1-1.3c0.1-0.9,0.2-1.7,0.3-2.6c0.2-1.7,0.4-3.4,0.6-5.1c0.4-3.4,0.7-6.7,1.1-9.9
		c0.7-6.4,1.4-12.5,2-18.3l0-0.1l0.1,0c1.2,0.4,2.1,1.1,3.2,1.6c1.1,0.5,2.2,0.9,3.3,1.1c1.1,0.2,2.3,0.4,3.4,0.3
		c0.6,0,1.1,0,1.7-0.1c0.6-0.1,1.1-0.1,1.6-0.3c2.2-0.5,4.2-1.4,5.9-2.6c1.8-1.2,3.3-2.7,4.5-4.3c1.2-1.6,2.1-3.4,2.7-5.1
		c0.1-0.2,0.2-0.4,0.2-0.7c0.1-0.2,0.1-0.4,0.2-0.7c0.1-0.2,0.1-0.4,0.2-0.7c0.1-0.2,0.1-0.4,0.1-0.7c0.1-0.4,0.1-0.9,0.2-1.3
		c0-0.4,0.1-0.9,0.1-1.3c0.2-3.4-0.6-6.5-1.8-8.9c-1.2-2.4-2.8-4.2-4.4-5.4c-0.4-0.3-0.8-0.6-1.2-0.8c-0.2-0.1-0.4-0.3-0.6-0.4
		c-0.2-0.1-0.4-0.2-0.6-0.3c-0.4-0.2-0.7-0.4-1.1-0.5c-0.4-0.1-0.7-0.3-1-0.4c-0.3-0.1-0.6-0.2-0.9-0.3c-0.3-0.1-0.6-0.1-0.8-0.2
		c-0.5-0.1-0.9-0.2-1.3-0.2C298.4,186.3,298,186.3,298,186.3z"/>
	<path class="st12" d="M177.8,184.1c0,0,1.7-0.7,3-0.3c1.4,0.4,6,4.2,6,4.2l4.1-0.5l1,12.2l-16.6,5.9L177.8,184.1z"/>
	<path class="st13" d="M165.3,187.2c0,0,3.7-0.2,5.1-0.8c1.4-0.6,4.9-3.3,5.6-3.2c0.7,0.1,3,0.7,3,0.7l-1.3,3c0,0,4.5,3.4,5.8,4.6
		c1.3,1.2,5.2,6.6,5.3,7.8c0.1,1.2-0.5,2.7-1.1,3.1c-0.6,0.4-2.6-0.7-2.6-0.7s0.2,1.1-0.7,2.2c-0.9,1-2.6,0.5-2.6,0.5
		s-0.4,1.8-1.2,2c-0.9,0.3-2.6-0.8-2.6-0.8s-0.7,1.5-1.4,1.6c-0.7,0.1-2.4-1.2-2.4-1.2s-7.5-6.7-9.2-7.8c-1.7-1-2.3-1.1-2.3-1.1
		L165.3,187.2z"/>
	<path class="st14" d="M178.3,205.5c0,0,0-0.2-0.1-0.4c-0.1-0.2-0.2-0.5-0.3-0.9c-0.3-0.7-0.5-1.2-0.5-1.2c0.1,0,0.4,0.4,0.7,1.1
		c0.1,0.3,0.2,0.7,0.3,0.9C178.4,205.3,178.3,205.5,178.3,205.5z"/>
	<path class="st14" d="M181.8,204.8c-0.1,0-0.4-0.8-0.8-1.7c-0.5-0.9-1-1.6-0.9-1.6c0-0.1,0.7,0.5,1.1,1.5
		C181.7,203.9,181.9,204.8,181.8,204.8z"/>
	<path class="st14" d="M185.4,202c-0.1,0-0.2-0.9-0.6-1.9c-0.4-1-1-1.7-1-1.8c0,0,0.7,0.6,1.2,1.7C185.5,201.1,185.5,202,185.4,202z
		"/>
	<path class="st14" d="M183.7,195.3c0.1,0,0.2,0.6,0.1,1.4c0,0.8-0.2,1.4-0.3,1.4c-0.1,0,0-0.6,0.1-1.4
		C183.6,195.9,183.6,195.3,183.7,195.3z"/>
	<path class="st12" d="M171.9,189.7c0,0,1.8-4.2,2.3-4.7c0.5-0.5,4.9-1.4,4.9-1.4l0.9,3.7l-1.1,1l-2-0.3
		C176.9,188,175.2,191.4,171.9,189.7z"/>
	<path class="st12" d="M163.3,197.1c0,0-0.6,0.4-0.2,1.6c0.5,1.2,2.1,0.5,2.7,0.2c0,0-1,1.8-0.1,2.5c0.9,0.7,2.1,0.6,2.1,0.6
		s-0.2,1.1,1.1,2c1.3,0.8,1.7,0.1,1.7,0.1s-0.1,1.9,1.5,2.2c1.6,0.3,2.2-0.3,2.2-0.3l-0.6-1.2c0,0,1.1-1.9,0.5-2.8
		c-0.6-0.9-1.8-0.9-1.8-0.9s0.5-1.7-0.4-2.3c-1.6-1-2.5,0.6-2.5,0.6s0.1-1.9-1.2-2s-2.2,0.8-2.2,0.8L163.3,197.1z"/>
	<path class="st15" d="M169.7,199.5c0.1,0-0.3,0.7-0.8,1.4c-0.5,0.7-1,1.2-1,1.2c-0.1,0,0.3-0.6,0.8-1.3
		C169.2,200,169.6,199.4,169.7,199.5z"/>
	<path class="st15" d="M172.6,201.4c0.1,0-0.3,0.7-0.9,1.4c-0.6,0.7-1.1,1.2-1.2,1.1c0-0.1,0.4-0.6,1-1.3
		C172.2,202,172.6,201.4,172.6,201.4z"/>
	<path class="st10" d="M138.6,218.2l-7.5-0.5l-5.1,29l7.5,0.5c1.8-4.4,7.5-27.3,7.5-27.3L138.6,218.2z"/>
	<path class="st10" d="M94.2,214.4c0,0-6.4,12-6.4,17c-0.1,5,1.9,12.8,1.9,12.8l38.7,2.6c0,0,1.5-4.1,3.1-10.2
		c1.5-6.1,5.3-19.3,5.3-19.3L94.2,214.4z"/>
	<path class="st10" d="M154.9,103.4c-1.1-1.8-2.5-3.6-2.6-5.8c-0.1-2,1-4.1,0.3-6c-0.8-2.3-3.8-2.9-4.8-5.1c-0.5-1-0.5-2.3-1-3.4
		c-0.9-1.8-3-2.5-4.9-2.5c-2,0-3.9,0.5-5.9,0.4c-2.7-0.1-5.3-1.4-7.9-0.9c-2.9,0.5-5.1,3-7.3,5.3l-2.8,2.7c-0.6,0.4-1.2,0.8-1.8,1.2
		c-1.1,0.6-2.3,0.9-3.3,1.7c-2.1,1.6-2.6,5.2-0.8,7.1c-2.1,0.4-4,2.5-4.2,4.8c-0.1,1.2,0.2,2.5,0.3,3.7c0.2,1.2,0.2,2.6-0.5,3.6
		c-0.7,1.1-2.2,1.7-3.1,1c0.1,1.6,1,3.2,2.3,4c-0.6,0.5-1.5,0.8-2.3,0.7c1.3,5.6,6.7,9.1,12.2,9.7c5.5,0.7,11.1-0.9,16.5-2.4
		l15.4-2.3c1.3-0.2,2.1-1.8,2.4-3.2c0.2-1.4,0.1-2.9,0.8-4.2c0.9-1.7,3.1-2.4,4-4.1C156.9,107.6,156,105.2,154.9,103.4z"/>
	<path class="st10" d="M117.5,113c-0.5-3.6-0.9-7.2-0.9-10.8c0.1-3.6,0.8-7.4,2.4-10.6c0.2-0.5,2.2-3.8,2.7-3.6
		c0.3,0.1-1,3.2-0.9,3.5c1.2,3.5,1.1,7.4,0.2,11.1C120.3,106.3,119.1,109.5,117.5,113z"/>
	<path class="st13" d="M120.3,99.3c1.2-9.2,7.2-16.4,15.8-15.3l0.8,0.1c7.9,1.4,13.1,9.1,12,17.7c-1.1,7.9-2.3,16.7-3.3,20.9
		c-1.9,8.7-10.4,8.5-10.4,8.5l-1.8,14.4l-18-15.8L120.3,99.3z"/>
	<path class="st14" d="M135.7,131c0,0-5.4-0.6-10.2-5.4c0,0,1.1,7.7,9.7,8.4L135.7,131z"/>
	<path class="st10" d="M145.6,108.7c-0.1,0.7-0.8,1.1-1.4,1.1c-0.7-0.1-1.1-0.7-1-1.4c0.1-0.7,0.8-1.1,1.4-1.1
		C145.3,107.4,145.8,108,145.6,108.7z"/>
	<path class="st10" d="M146.7,105.4c-0.2,0.1-0.9-0.8-2.3-1c-1.3-0.3-2.4,0.3-2.5,0.1c-0.1-0.1,0.2-0.4,0.6-0.6
		c0.5-0.2,1.2-0.4,2.1-0.3c0.8,0.2,1.4,0.6,1.7,1C146.7,105.1,146.8,105.4,146.7,105.4z"/>
	<path class="st10" d="M133.6,107.6c-0.1,0.7-0.8,1.1-1.4,1.1c-0.7-0.1-1.1-0.7-1-1.4c0.1-0.7,0.8-1.1,1.4-1.1
		C133.3,106.4,133.7,107,133.6,107.6z"/>
	<path class="st10" d="M133.7,103.5c-0.2,0.1-1-0.8-2.3-1c-1.3-0.3-2.4,0.3-2.5,0.1c-0.1-0.1,0.2-0.4,0.6-0.6
		c0.5-0.2,1.2-0.4,2.1-0.3c0.8,0.2,1.4,0.6,1.7,1C133.7,103.1,133.8,103.4,133.7,103.5z"/>
	<path class="st10" d="M136.5,114.6c0-0.1,0.8-0.1,2.1,0c0.3,0,0.6,0,0.7-0.2c0.1-0.2,0.1-0.6,0-1c-0.1-0.9-0.3-1.8-0.4-2.8
		c-0.5-3.9-0.8-7.1-0.7-7.2c0.1,0,0.7,3.1,1.2,7c0.1,1,0.2,1.9,0.3,2.8c0,0.4,0.1,0.9-0.1,1.4c-0.1,0.2-0.4,0.4-0.6,0.4
		c-0.2,0-0.4,0-0.5,0C137.2,114.8,136.5,114.7,136.5,114.6z"/>
	<path class="st10" d="M132.5,114.7c0.2,0-0.1,1.5,0.9,2.7c1,1.3,2.5,1.4,2.4,1.6c0,0.1-0.4,0.2-1,0.1c-0.6-0.1-1.5-0.5-2.1-1.2
		c-0.6-0.8-0.7-1.7-0.6-2.3C132.2,115,132.4,114.6,132.5,114.7z"/>
	<path class="st10" d="M134.6,98.1c-0.2,0.4-1.5-0.1-3-0.1c-1.6-0.1-2.9,0.1-3-0.2c-0.1-0.2,0.2-0.5,0.8-0.8
		c0.6-0.3,1.4-0.5,2.4-0.4c0.9,0.1,1.7,0.4,2.3,0.7C134.5,97.6,134.7,97.9,134.6,98.1z"/>
	<path class="st10" d="M147,101c-0.3,0.3-1.1-0.2-2.2-0.4c-1.1-0.3-2-0.2-2.2-0.5c-0.1-0.2,0.2-0.5,0.6-0.7c0.5-0.2,1.2-0.3,1.9-0.2
		c0.7,0.2,1.3,0.6,1.6,1C147.1,100.5,147.1,100.8,147,101z"/>
	<path class="st13" d="M118.8,105.5c-0.1-0.1-5.3-2.8-6.4,3.2c-1.1,6,4.8,5.6,4.9,5.4C117.3,113.9,118.8,105.5,118.8,105.5z"/>
	<path class="st14" d="M115.9,111.6c0,0-0.1,0.1-0.3,0.1c-0.2,0.1-0.5,0.1-0.7-0.1c-0.5-0.3-0.9-1.4-0.7-2.5c0.1-0.5,0.3-1,0.5-1.4
		c0.2-0.4,0.6-0.7,0.9-0.7c0.3,0,0.5,0.2,0.5,0.4c0,0.2,0,0.3,0,0.3c0,0,0.1-0.1,0.1-0.3c0-0.1,0-0.3-0.2-0.4
		c-0.1-0.1-0.3-0.2-0.5-0.2c-0.4,0-0.9,0.3-1.2,0.8c-0.3,0.4-0.5,1-0.6,1.6c-0.2,1.2,0.2,2.4,1,2.8c0.4,0.2,0.7,0.1,0.9,0
		C115.9,111.7,115.9,111.6,115.9,111.6z"/>
	<path class="st10" d="M146.7,91.4c1-0.4-1.2-4-3.3-5.4c-3.2-2.1-8.3-3.8-11.6-3.3c-4,0.6-7.6,2.2-10.1,5.6c-2.6,3.4-4,7.6-4.6,11.8
		c-0.2,1.3-0.3,2.6,0.2,3.8c0.6,1.4,2,2.5,1.6,4.3c-0.1,0.7-0.1,1.4,0.3,1.9c0.8,1.3,2.3,0.4,3.1-0.6c1.7-2.2,2.3-5,2.9-7.7
		c0.4-1.9,0.8-3.9,0.6-5.8c-0.1-1-0.4-2.1-0.4-3.1c0-1.1,0.2-2.2,0.9-3c0.1-0.1,0.3-0.3,0.6-0.4c1.9-1.3,4.2-1.4,6.1-0.4
		c3,1.6,8.2,4.2,9.9,3.2c2.4-1.4,3-2.4,3-2.4L146.7,91.4z"/>
	<path class="st10" d="M132,82.1c3.4-0.7,7-0.1,9.7,1.9c1.4,1.1,2.6,2.7,2.8,4.6c0.2,1.9-1,4-2.7,4.5l-0.1,0.1
		c-2.6,0.5-4.2,0-6.5-1.3c-1.9-1-3.6-2.7-5.5-3.7c-2.1-1.1-4.5-1.5-6.9-1.2C125.4,84.7,128.6,82.8,132,82.1z"/>
	<path class="st16" d="M133.7,81.3c0,0,0.2,0,0.6,0.1c0.4,0.1,0.9,0.3,1.5,0.5c0.6,0.3,1.3,0.7,2,1.3c0.7,0.6,1.4,1.3,1.9,2.3
		c0.5,0.9,0.7,2,0.8,2.9c0.1,0.9,0.1,1.8,0.1,2.5c0,0.7-0.1,1.3-0.1,1.7c-0.1,0.4-0.1,0.6-0.1,0.6c0,0,0-0.2,0-0.6
		c0-0.4,0.1-1,0.1-1.7c0-0.7,0-1.5-0.1-2.5c-0.1-0.9-0.3-1.9-0.8-2.8c-0.5-0.9-1.1-1.6-1.8-2.2c-0.7-0.6-1.3-1-1.9-1.3
		C134.5,81.6,133.7,81.4,133.7,81.3z"/>
	<path class="st16" d="M139.2,81.5c0,0,0.2,0,0.5,0.2c0.1,0.1,0.3,0.1,0.5,0.3c0.2,0.1,0.4,0.3,0.7,0.4c0.9,0.7,2,2,2.5,3.9
		c0.1,0.4,0.2,0.9,0.3,1.3c0,0.4,0.1,0.9,0,1.3c0,0.4-0.1,0.8-0.1,1.2c-0.1,0.4-0.1,0.7-0.2,1c-0.1,0.3-0.2,0.6-0.3,0.8
		c-0.1,0.2-0.2,0.4-0.3,0.6c-0.2,0.3-0.3,0.5-0.3,0.4c0,0,0.4-0.7,0.7-1.9c0.1-0.3,0.1-0.6,0.2-1c0-0.4,0.1-0.7,0.1-1.1
		c0-0.4,0-0.8-0.1-1.3c-0.1-0.4-0.1-0.9-0.3-1.3c-0.5-1.8-1.5-3.1-2.4-3.8c-0.2-0.2-0.4-0.3-0.6-0.5c-0.2-0.1-0.4-0.2-0.5-0.3
		C139.3,81.6,139.2,81.5,139.2,81.5z"/>
	<path class="st16" d="M137.4,143.4c-0.1,0.8,1.8,19.3,2.8,23.8c1,4.6,0.8,49.6-0.2,52.8c-1,3.1-2.6,2.9-2.6,2.9s-38-5.2-42.2-5.1
		c-4.2,0.1-5.9-0.1-6.3-5.2c-0.4-5,3.4-30.8,3.3-37.1c-0.2-6.3,0.1-9.3,0.8-18.6c0.6-8.1,3-14.4,7.2-18.8c4.1-4.4,12.7-8.6,12.7-8.6
		l3.3-4.2l18.8,12.6l0.7-2.5l0.8,4.1L137.4,143.4z"/>
	<path class="st17" d="M92.4,201.6l46.9,2.7l5.9-44.5l-46.9-2.7L92.4,201.6z"/>
	<path class="st16" d="M96.3,156.3c0.2,0.4,13.2,40.6,20.8,42.7c7.6,2.1,31.7,4.1,36.5,3.5c4.8-0.6,9.5-1.2,9.5-1.2
		s4.4-8.3,2.1-15.7l-6.5-0.2c0,0-17.9-2.2-20.4-3.1c-2.5-0.9-4.4-3.6-6.7-3.6l-10-34.4c0,0-7.9-9.3-14.6-7
		C100.4,139.4,94.9,152.6,96.3,156.3z"/>
	<path class="st10" d="M158.7,202.2c0,0,0-0.2,0.2-0.6c0.1-0.4,0.3-1,0.5-1.7c0.2-0.7,0.4-1.6,0.6-2.6c0.2-1,0.3-2.1,0.4-3.2
		c0.1-2.3,0-4.4-0.2-5.8c-0.1-0.7-0.2-1.3-0.3-1.7c-0.1-0.4-0.1-0.6-0.1-0.6c0,0,0.1,0.2,0.2,0.6c0.1,0.4,0.2,1,0.3,1.7
		c0.2,1.5,0.4,3.6,0.3,5.9c-0.1,1.2-0.2,2.2-0.4,3.2c-0.2,1-0.4,1.9-0.6,2.6c-0.2,0.7-0.4,1.3-0.6,1.7
		C158.8,202,158.7,202.2,158.7,202.2z"/>
	<path class="st10" d="M121.7,144.1c0,0,0.1,0.2,0.2,0.6c0.1,0.4,0.3,1,0.5,1.8c0.5,1.6,1.2,3.9,2,6.9c1.7,6,4.3,14.6,7.3,25.1
		l-0.1-0.1c1.1,0,2.1,0.6,2.9,1.2c0.9,0.6,1.7,1.3,2.7,1.9c0.9,0.6,2.1,0.8,3.2,1c1.1,0.2,2.3,0.4,3.5,0.6c4.7,0.7,9.7,1.4,14.9,2.1
		l0,0c2.1,0.1,4.3,0.1,6.5,0.2l0.1,0l0,0.1c0.7,2.5,0.9,5.2,0.4,7.9c-0.4,2.7-1.2,5.4-2.5,8l0,0.1l-0.1,0c-1.3,0.2-2.8,0.3-4.2,0.5
		c-1.5,0.2-3.1,0.4-4.6,0.6c-1.5,0.2-3.1,0.2-4.6,0.2c-3-0.1-6-0.2-8.9-0.5c-2.9-0.2-5.8-0.5-8.5-0.8c-2.8-0.3-5.5-0.6-8.1-1
		c-1.3-0.2-2.6-0.4-3.9-0.6c-1.3-0.3-2.5-0.5-3.7-0.9c-0.6-0.3-1.1-0.7-1.5-1.1c-0.5-0.4-0.9-0.9-1.3-1.4c-0.8-1-1.5-2-2.1-3
		c-2.5-4.1-4.4-8.3-6-12.1c-3.3-7.6-5.5-13.9-7.1-18.3c-0.8-2.2-1.3-3.9-1.7-5.1c-0.4-1.2-0.6-1.8-0.6-1.8s0.1,0.1,0.2,0.4
		c0.1,0.3,0.3,0.7,0.5,1.3c0.4,1.2,1,2.9,1.8,5c1.6,4.4,3.9,10.7,7.2,18.3c1.7,3.8,3.5,7.9,6,12c0.6,1,1.3,2,2.1,3
		c0.4,0.5,0.8,0.9,1.2,1.4c0.4,0.4,0.9,0.8,1.5,1.1c1.1,0.4,2.4,0.6,3.7,0.9c1.3,0.2,2.6,0.5,3.9,0.6c2.6,0.4,5.4,0.7,8.1,1
		c2.8,0.3,5.6,0.6,8.5,0.8c2.9,0.2,5.9,0.4,8.9,0.5c1.5,0,3,0,4.5-0.2c1.5-0.2,3.1-0.4,4.6-0.6c1.4-0.2,2.9-0.4,4.2-0.5l-0.1,0.1
		c1.2-2.5,2.1-5.2,2.5-7.9c0.4-2.7,0.3-5.4-0.4-7.8l0.1,0.1c-2.3-0.1-4.5-0.2-6.5-0.2h0l0,0c-5.2-0.7-10.2-1.3-14.9-2.1
		c-1.2-0.2-2.3-0.4-3.5-0.6c-0.6-0.1-1.1-0.2-1.7-0.4c-0.6-0.1-1.1-0.4-1.6-0.7c-1-0.6-1.8-1.3-2.7-1.9c-0.9-0.6-1.8-1.1-2.8-1.2
		l-0.1,0l0-0.1c-3-10.5-5.5-19.2-7.2-25.2c-0.9-3-1.5-5.3-2-6.9c-0.2-0.8-0.4-1.4-0.5-1.8C121.8,144.3,121.7,144.1,121.7,144.1z"/>
	<path class="st10" d="M118.9,141.7c0,0-0.2-0.3-0.6-0.7c-0.4-0.5-1-1.1-1.8-1.8c-0.8-0.7-1.9-1.3-3.2-1.8c-1.3-0.5-2.9-0.8-4.5-0.7
		c-1.6,0.1-3.2,0.5-4.5,1.1c-1.3,0.6-2.5,1.3-3.3,2.1c-0.9,0.7-1.5,1.4-1.9,1.9c-0.4,0.5-0.6,0.8-0.6,0.8c0,0,0-0.1,0.1-0.2
		c0.1-0.1,0.2-0.4,0.4-0.6c0.4-0.5,1-1.2,1.9-2c0.9-0.8,2-1.5,3.3-2.2c1.3-0.6,2.9-1,4.6-1.1c1.7-0.1,3.2,0.3,4.6,0.8
		c1.3,0.5,2.4,1.2,3.3,1.9c0.8,0.7,1.4,1.4,1.8,1.8c0.2,0.2,0.3,0.4,0.4,0.6C118.9,141.7,118.9,141.7,118.9,141.7z"/>
	<path class="st10" d="M131.8,178.4c0.1,0-0.5,1.2-1.1,2.7c-0.7,1.5-1.3,2.6-1.4,2.6c-0.1,0,0.5-1.2,1.1-2.7
		C131.2,179.6,131.8,178.4,131.8,178.4z"/>
	<path class="st10" d="M163.5,187.5c0,0,0.1,0,0.2,0c0.1,0,0.2,0.2,0.3,0.4c0.1,0.2,0.1,0.5-0.1,0.8c-0.2,0.2-0.5,0.4-0.9,0.3
		c-0.4-0.1-0.5-0.4-0.5-0.7c0-0.3,0.1-0.6,0.3-0.7c0.2-0.1,0.4-0.1,0.5-0.1C163.4,187.5,163.5,187.5,163.5,187.5
		c-0.1,0.1-0.3,0-0.6,0.2c-0.1,0.1-0.2,0.3-0.2,0.5c0,0.2,0.2,0.5,0.4,0.5c0.2,0.1,0.5-0.1,0.6-0.2c0.1-0.2,0.1-0.4,0.1-0.6
		C163.8,187.6,163.5,187.6,163.5,187.5z"/>
	<path class="st10" d="M134.9,139.9c0,0-0.2-0.1-0.4-0.3c-0.3-0.2-0.7-0.5-1.2-0.9l0.1,0c-0.4,1.4-0.9,3.4-1.6,5.8l0,0.2l-0.1-0.1
		c-1.8-1.4-3.9-3-6.2-4.8c-1.7-1.3-3.3-2.6-4.7-3.7c-1.5-1.1-2.8-2.1-4-2.9c-1.1-0.8-2-1.4-2.7-1.9c-0.3-0.2-0.5-0.4-0.7-0.5
		c-0.2-0.1-0.3-0.2-0.2-0.2c0,0,0.1,0,0.3,0.2c0.2,0.1,0.4,0.3,0.8,0.5c0.7,0.4,1.6,1,2.8,1.8c1.2,0.8,2.5,1.7,4,2.8
		c1.5,1.1,3.1,2.4,4.8,3.7c2.3,1.7,4.4,3.4,6.2,4.8l-0.2,0.1c0.7-2.4,1.2-4.4,1.7-5.7l0-0.1l0.1,0.1c0.5,0.4,0.9,0.7,1.2,0.9
		C134.8,139.7,134.9,139.8,134.9,139.9z"/>
	<path class="st17" d="M132.7,146.7c-2.7-1.1-4.9-3.2-7.1-5.2c-3.1-2.9-6.2-5.8-9.3-8.7c0.2,0.1,0.3,0.2,0.5,0.3
		c0.4,0.3,0.9,0.6,1.4,1l4.5,3.4c0.9,0.7,1.8,1.4,2.7,2.1c2.3,1.7,4.4,3.3,6.2,4.7l0.1,0.1l0-0.2c0.3-1.1,0.6-2.1,0.9-3.1l0.8-2.4
		C133.2,141.5,132.9,144.1,132.7,146.7z"/>
	<path class="st18" d="M131.7,144.5l-0.1-0.1c-1.8-1.4-3.9-3-6.2-4.7c-1-0.7-1.9-1.4-2.8-2.1l9,6.8l1-3.1c-0.2,0.9-0.5,2-0.9,3.1
		L131.7,144.5z M118.1,134.2c-0.5-0.4-1-0.7-1.4-1c-0.2-0.1-0.3-0.2-0.5-0.3c-0.2-0.1-0.3-0.3-0.5-0.4L118.1,134.2z"/>
	<path class="st10" d="M231.5,104.5c-1.9,0.1-3.7-1.4-3.9-3.3c-0.2-1.9,1.2-4,3-4.6c-1-1.3-1.1-3.4-0.2-4.9c0.9-1.5,2.8-2.4,4.4-2
		c0.2-1.7,1.4-3.3,2.9-4.1c1.5-0.8,3.4-0.6,4.7,0.3c2-1.5,4.9-1.5,6.6,0.2c1.6-0.2,3.3,0.7,3.9,2.3c0.6,1.5,0.1,3.5-1.2,4.7"/>
	<path class="st12" d="M232,104.7c1.5-8.7,9-15.2,17.3-14.8l0.8,0c8.8,1,12.6,9.5,11,18.8l-3.2,33.6l-22.5,6.7l1.1-12.1
		c0,0-8.4-1.8-7.7-10.9C229.2,121.8,230.6,112.9,232,104.7z"/>
	<path class="st15" d="M236.7,136.9c0,0,5.6,0.6,11.9-3c0,0-3.3,6.6-12.1,5.3L236.7,136.9z"/>
	<path class="st10" d="M232.8,112.9c-0.1,0.7,0.4,1.3,1.1,1.4c0.7,0.1,1.3-0.4,1.4-1.1c0.1-0.7-0.4-1.3-1.1-1.4
		C233.5,111.7,232.9,112.2,232.8,112.9z"/>
	<path class="st10" d="M232.6,109.2c0.1,0.2,1.2-0.5,2.5-0.5c1.4,0,2.3,0.8,2.5,0.7c0.1-0.1-0.1-0.4-0.5-0.8c-0.4-0.4-1.1-0.7-2-0.8
		c-0.9,0-1.6,0.3-2,0.6C232.7,108.8,232.5,109.1,232.6,109.2z"/>
	<path class="st10" d="M245.3,114c-0.1,0.7,0.4,1.3,1.1,1.4c0.7,0.1,1.3-0.4,1.4-1.1c0.1-0.7-0.4-1.3-1.1-1.4
		C246,112.8,245.4,113.3,245.3,114z"/>
	<path class="st10" d="M246.1,110.3c0.1,0.2,1.2-0.5,2.5-0.5c1.4,0,2.3,0.8,2.5,0.7c0.1-0.1,0-0.4-0.5-0.8c-0.4-0.4-1.1-0.7-2-0.8
		c-0.9,0-1.6,0.3-2,0.6C246.2,109.9,246,110.2,246.1,110.3z"/>
	<path class="st10" d="M240.2,120.1c0-0.1-0.8-0.3-2.1-0.5c-0.3-0.1-0.6-0.1-0.7-0.4c-0.1-0.3,0.1-0.6,0.3-1
		c0.4-0.8,0.8-1.7,1.2-2.6c1.7-3.8,3-6.9,2.8-6.9c-0.1-0.1-1.6,2.9-3.3,6.7c-0.4,0.9-0.8,1.8-1.2,2.7c-0.2,0.4-0.4,0.8-0.3,1.4
		c0.1,0.3,0.3,0.5,0.5,0.5c0.2,0.1,0.4,0.1,0.5,0.1C239.4,120.1,240.2,120.2,240.2,120.1z"/>
	<path class="st10" d="M246,105.6c0.1,0.4,1.4,0,2.8,0.1c1.4,0,2.6,0.3,2.8,0c0.1-0.2-0.2-0.5-0.6-0.8c-0.5-0.3-1.2-0.6-2.1-0.6
		c-0.9,0-1.6,0.3-2.1,0.6C246.2,105.1,245.9,105.4,246,105.6z"/>
	<path class="st10" d="M232.7,104.3c0.3,0.3,1.4,0.1,2.8,0.1c1.4,0,2.5,0.3,2.8,0c0.1-0.2,0-0.5-0.5-0.8c-0.5-0.3-1.3-0.6-2.2-0.6
		c-0.9,0-1.8,0.2-2.3,0.6C232.8,103.8,232.6,104.1,232.7,104.3z"/>
	<path class="st10" d="M232.6,100.8c0,0,2.8-5.6,5.6-6.8c3.3-1.5,4.4,2.3,7.5,1.5c3.1-0.8,6.3-2.2,9.2,0.4c3.1,2.9,1.4,4.7,1.2,8.7
		c-0.7,16.5,1.8,21.3,3.3,13.6c0.2-0.8,2.5-1.4,3.1-5c0.9-4.6,1.5-10.3,0.9-13.6c-0.6-2.8-1.9-4.8-4.4-7.1c-4-3.5-9.8-3.9-13.9-3.6
		C241,89.1,232.9,93.6,232.6,100.8z"/>
	<path class="st12" d="M259.7,118c0.2-1.4,1.4-2.5,2.7-2.3c1.6,0.2,3.3,1.3,2.9,4.8c-0.8,6.2-6.5,4.4-6.5,4.3
		C258.8,124.6,259.3,120.6,259.7,118z"/>
	<path class="st15" d="M260.4,122.5c0,0,0.1,0.1,0.3,0.2c0.2,0.1,0.4,0.2,0.8,0.1c0.6-0.2,1.3-1.2,1.4-2.3c0.1-0.6,0-1.1-0.1-1.6
		c-0.1-0.5-0.4-0.8-0.7-0.9c-0.3-0.1-0.5,0.1-0.6,0.2c-0.1,0.2-0.1,0.3-0.1,0.3c0,0-0.1-0.1,0-0.4c0-0.1,0.1-0.3,0.3-0.4
		c0.2-0.1,0.4-0.2,0.6-0.1c0.4,0.1,0.8,0.5,0.9,1c0.2,0.5,0.2,1.1,0.1,1.8c-0.2,1.2-0.9,2.4-1.8,2.5c-0.4,0.1-0.7-0.1-0.9-0.2
		C260.3,122.7,260.3,122.5,260.4,122.5z"/>
	<path class="st10" d="M259.8,106.1c-0.8,0.5-1.7,1.1-2.7,1.1c-1,0.1-2-0.6-2-1.6c0-0.4,0.1-0.9-0.1-1.3c-0.3-0.4-0.9-0.3-1.4-0.3
		c-1.8,0.1-3.4-1.3-3.7-3.1c-0.5,0.7-1.5,0.6-2.2,0.1c-0.6-0.5-1-1.3-1.5-1.9c-0.5-0.7-1.2-1.3-2-1.2c-0.5,0-0.9,0.3-1.3,0.2
		c-0.8-0.1-1.1-1.1-1.1-1.9c0-0.8,0-1.8-0.7-2.3c-0.6-0.4-1.4-0.2-2.1-0.2c-0.7,0.1-1.7-0.1-1.8-0.9c-0.1-0.4,0.1-0.8,0.4-1.1
		c1.1-1.5,3.2-2.1,4.7-1.3c0.8-2.1,2.8-3.6,4.9-3.7c2.1-0.1,4.1,1.1,4.9,3.1c1.4-1.2,3.3-1.6,4.9-1.1c1.6,0.5,3,1.8,3.5,3.5
		c1.5-0.3,3.1,0.3,3.9,1.6c0.8,1.3,0.8,3.1-0.1,4.5c1,0.7,1.8,1.9,1.7,3.2c-0.1,1.3-1.4,2.6-2.6,2.2c0.4,1-0.1,2.4-1.1,2.9
		c-1,0.5-2.3,0.1-2.8-0.8"/>
	<path class="st16" d="M241.7,92.3c0,0,0,0,0,0.1c0,0.1,0,0.2,0,0.3c0,0.3,0.1,0.7,0.3,1.2c0.2,0.5,0.6,1.1,1.2,1.6
		c0.6,0.5,1.4,0.9,2.4,0.9l-0.1-0.1c-0.2,0.5-0.2,1.2,0,1.8c0.2,0.6,0.5,1.1,0.9,1.6c0.2,0.2,0.3,0.5,0.6,0.8
		c0.3,0.2,0.6,0.4,0.9,0.4c0.7,0.1,1.5-0.1,2-0.6l-0.2-0.1c0,1.3,0.6,2.6,1.6,3.4c0.5,0.5,1.2,0.8,1.9,0.8c0.7,0,1.4-0.2,2-0.4
		l-0.2-0.1c0.3,0.8,0.7,1.5,1.2,2c0.5,0.5,1.3,0.9,2,0.7c1.5-0.3,2.5-1.5,2.8-2.6L261,104c0.7,0.4,1.4,0.5,2,0.4
		c0.6-0.1,1.1-0.3,1.5-0.6c0.4-0.3,0.6-0.6,0.7-0.7c0.1-0.2,0.2-0.3,0.2-0.3c0,0-0.2,0.5-1,1c-0.4,0.2-0.9,0.5-1.5,0.5
		c-0.6,0.1-1.3,0-1.9-0.4l-0.1-0.1l0,0.1c-0.3,1.1-1.3,2.2-2.7,2.4c-0.7,0.1-1.3-0.2-1.9-0.7c-0.5-0.5-0.9-1.2-1.2-1.9l0-0.1l-0.1,0
		c-0.6,0.2-1.3,0.4-1.9,0.3c-0.6,0-1.3-0.3-1.8-0.7c-1-0.8-1.5-2-1.5-3.2l0-0.3l-0.2,0.2c-0.5,0.5-1.2,0.7-1.8,0.6
		c-0.3-0.1-0.6-0.2-0.8-0.4c-0.2-0.2-0.4-0.5-0.6-0.7c-0.4-0.5-0.7-1-0.9-1.5c-0.2-0.5-0.2-1.1,0-1.6l0.1-0.1l-0.2,0
		c-0.9,0-1.7-0.3-2.3-0.8c-0.6-0.4-1-1-1.2-1.5C241.7,93,241.7,92.3,241.7,92.3z"/>
	<path class="st10" d="M245.1,120.9c-0.2,0-0.1,1.5-1.3,2.7c-1.2,1.2-2.7,1.2-2.7,1.4c0,0.1,0.4,0.2,1,0.2c0.6,0,1.5-0.4,2.2-1.1
		c0.7-0.7,1-1.6,1-2.2C245.4,121.2,245.2,120.9,245.1,120.9z"/>
	<path class="st19" d="M189.6,186.5c0.8-0.3,26.2-1.7,26.2-1.7l11.2-8.3l-3.9,26.1l-32.3,1.1L189.6,186.5z"/>
	<path class="st20" d="M218.9,182.9c0,0,2.8-2.2,3.1-2.3L218.9,182.9z"/>
	<path class="st21" d="M217.9,202.6l1.3-19.7l2.8-2.3l-0.1,0.5c-1.3,5.4-2.5,11.5-3.1,16.7L217.9,202.6z"/>
	<path class="st10" d="M261.7,229.7l-42.5-2.9c0,0,0.8,12.8,1,18.7c0.2,5.9,0.9,10.1,0.9,10.1l38.5,2.6c0,0,3.7-7.1,4.7-11.8
		C265.4,241.7,261.7,229.7,261.7,229.7z"/>
	<path class="st10" d="M215.7,228c0,0-2.7,14-2.9,26.3l14.3,1l1.2-11.2L215.7,228z"/>
	<path class="st22" d="M229.3,161.2l5.7-10.1l1.3-6.4c0,0,9.3-5.1,13.7-7c4.4-1.9,10.1-3.5,10.1-3.5l-0.7,6.1L229.3,161.2z"/>
	<path class="st19" d="M262.1,215.8c0,0,6.2-34.2,6.6-36.7c0,0,3.4-18.3,1.1-25.5c-2.3-7.2-8.5-13.8-8.5-13.8l-0.2-3.7l-14.4,8.1
		l-6.8,5.3c0,0-3.9,3.7-6.7,7.3c-2,2.5-4.4,5.7-5.7,9.8c-0.5,1.5-6.2,19.5-7.7,32.3c0,0-1.8,11.1-3.1,17.3c-1.6,7.7-4.7,25.4-5.6,36
		l43.5,1.6c10.9-1,9.1-2.3,9.1-2.3L262.1,215.8z"/>
	<path class="st10" d="M259.6,139.9c0,0-0.1,0-0.3,0.1c-0.2,0.1-0.5,0.2-0.9,0.3c-0.4,0.2-0.9,0.4-1.5,0.7c-0.6,0.3-1.2,0.6-1.9,1.1
		c-2.8,1.7-6.6,4.6-10.6,8.7l0,0l0,0c-1.4,0.2-2.8,0.3-4.3,0.5l0.1-0.1c-0.3,2.1-0.6,4.2-0.9,6.4l0,0.1l0,0c-2.3,2-4.7,4.2-6.9,6.7
		c-0.9,1-1.7,2.1-2.5,3.2l-0.3,0.4l-0.2,0.4c-0.2,0.3-0.3,0.6-0.4,0.9c-0.3,0.6-0.5,1.2-0.7,1.8c-0.9,2.5-1.7,4.9-2.5,7.1
		c-1.5,4.6-2.8,8.7-3.9,12.2c-2.2,7-3.4,11.3-3.4,11.3s0-0.3,0.2-0.8c0.1-0.5,0.3-1.3,0.6-2.3c0.6-2,1.4-4.8,2.4-8.3
		c1.1-3.5,2.3-7.6,3.8-12.2c0.8-2.3,1.6-4.7,2.5-7.2c0.2-0.6,0.5-1.2,0.7-1.9c0.1-0.3,0.3-0.6,0.4-0.9l0.2-0.5l0.3-0.4
		c0.7-1.1,1.6-2.2,2.5-3.3c2.2-2.6,4.6-4.8,7-6.8l0,0.1c0.3-2.2,0.6-4.4,0.9-6.4l0-0.1l0.1,0c1.5-0.2,2.9-0.4,4.3-0.5l-0.1,0
		c4-4.1,7.9-7,10.7-8.7c0.7-0.4,1.4-0.7,1.9-1c0.6-0.3,1.1-0.5,1.5-0.6c0.4-0.1,0.7-0.2,0.9-0.3C259.5,140,259.6,139.9,259.6,139.9z
		"/>
	<path class="st19" d="M243.5,166.2l-4.4,45.7L227.8,256l17,1.2c0,0,11.4-33.3,14-40.2c2.5-6.8,8.9-41.3,9.3-43
		c0.2-0.7,3.3-12.5-1.5-18.6L243.5,166.2z"/>
	<path class="st10" d="M266.5,155.4c0,0,0.1,0.1,0.3,0.4c0.2,0.3,0.5,0.7,0.8,1.3c0.6,1.2,1.3,3.1,1.5,5.8c0.2,2.6,0,5.9-0.7,9.7
		c-0.5,1.9-0.8,3.8-1.2,6c-0.4,2.1-0.8,4.4-1.3,6.7c-0.9,4.7-1.9,9.9-3.1,15.4c-0.6,2.8-1.2,5.6-1.9,8.5c-0.7,2.9-1.4,6-2.5,9
		c-4.2,12-8.7,25.2-13.6,39.1l0,0.1l-0.1,0c-0.6,0-1.2-0.1-1.8-0.1c-5.2-0.4-10.2-0.7-15.2-1.1l-0.1,0l0-0.1
		c4.2-16.3,8-31.3,11.3-44.1l0,0c1.4-13.8,2.5-25.3,3.3-33.3c0.4-4,0.7-7.1,0.9-9.2c0.1-1.1,0.2-1.9,0.2-2.4
		c0.1-0.5,0.1-0.8,0.1-0.8s0,0.3-0.1,0.8c-0.1,0.6-0.1,1.4-0.2,2.4c-0.2,2.1-0.5,5.2-0.9,9.2c-0.8,8-1.9,19.4-3.2,33.3l0,0l0,0
		c-3.3,12.8-7.1,27.8-11.3,44.1l-0.1-0.2c4.9,0.3,10,0.7,15.2,1.1c0.6,0,1.3,0.1,1.8,0.1l-0.1,0.1c4.8-13.9,9.4-27.1,13.6-39.1
		c1.1-3,1.8-6,2.5-8.9c0.7-2.9,1.3-5.8,1.9-8.5c1.2-5.5,2.2-10.7,3.1-15.4c0.5-2.4,0.9-4.6,1.3-6.7c0.4-2.1,0.8-4.1,1.2-6
		c0.8-3.7,1-7,0.8-9.6c-0.2-2.6-0.9-4.6-1.5-5.8c-0.3-0.6-0.6-1-0.8-1.3C266.6,155.5,266.5,155.4,266.5,155.4z"/>
	<path class="st10" d="M247.1,216.9c0,0-0.5-0.2-1.3-0.5c-0.8-0.4-1.9-0.9-3.1-1.6c-1.2-0.7-2.2-1.3-2.9-1.9
		c-0.7-0.5-1.2-0.9-1.1-0.9c0,0,0.5,0.3,1.2,0.7s1.8,1.1,3,1.8c1.2,0.7,2.3,1.2,3,1.6C246.6,216.6,247.1,216.9,247.1,216.9z"/>
	<path class="st10" d="M215.8,217.3c0,0,0,0,0-0.1c0-0.1,0-0.2,0-0.3c0-0.3,0.1-0.8,0.2-1.3c0.2-1.2,0.4-2.8,0.8-4.9
		c0.7-4.1,1.6-9.8,2.7-16.1c1.1-6.3,2.2-12,3.1-16c0.4-2,0.8-3.7,1.1-4.8c0.1-0.6,0.2-1,0.3-1.3c0-0.1,0.1-0.2,0.1-0.3
		c0-0.1,0-0.1,0-0.1c0,0,0,0,0,0.1c0,0.1,0,0.2-0.1,0.3c-0.1,0.3-0.2,0.8-0.3,1.3c-0.2,1.2-0.6,2.8-1,4.9c-0.8,4.1-1.9,9.8-3,16.1
		c-1.1,6.3-2,12-2.7,16.1c-0.3,2-0.6,3.7-0.8,4.9c-0.1,0.6-0.2,1-0.2,1.3c0,0.1,0,0.3-0.1,0.3C215.8,217.3,215.8,217.3,215.8,217.3z
		"/>
	<path class="st10" d="M258.6,149.6c-0.1,0-0.3-1.8-1.2-3.8c-0.9-2-2.1-3.3-2.1-3.3c0,0,0.4,0.3,0.8,0.8c0.5,0.5,1,1.4,1.5,2.4
		c0.5,1,0.7,2,0.9,2.7C258.6,149.2,258.7,149.6,258.6,149.6z"/>
	<path class="st10" d="M221.7,203.2c0,0,0,0.1,0,0.3c0,0.2-0.2,0.5-0.5,0.8c-0.3,0.3-0.8,0.4-1.3,0.2c-0.2-0.1-0.5-0.3-0.6-0.5
		c-0.2-0.2-0.2-0.6-0.2-0.9c0.1-0.4,0.2-0.8,0.5-1.1c0.1-0.1,0.3-0.3,0.5-0.3c0.2-0.1,0.3-0.1,0.4-0.1l0,0l0,0
		c0.3,0,0.6,0.1,0.8,0.3c0.2,0.2,0.3,0.4,0.3,0.6C221.8,203,221.7,203.2,221.7,203.2c0,0,0-0.2-0.1-0.6c-0.1-0.2-0.1-0.4-0.3-0.5
		c-0.2-0.1-0.4-0.2-0.7-0.2l0,0c-0.1,0-0.3,0.1-0.4,0.1c-0.1,0-0.2,0.1-0.3,0.3c-0.2,0.2-0.3,0.6-0.4,0.9c-0.1,0.5,0.2,1,0.6,1.2
		c0.4,0.2,0.8,0.1,1.1-0.1c0.3-0.2,0.4-0.5,0.5-0.7C221.7,203.3,221.7,203.2,221.7,203.2z"/>
	<path class="st10" d="M219.7,219.2c0,0,0,0.1,0,0.3c0,0.2-0.2,0.5-0.5,0.8c-0.3,0.3-0.8,0.4-1.3,0.2c-0.2-0.1-0.5-0.3-0.6-0.5
		c-0.2-0.2-0.2-0.6-0.2-0.9c0-0.4,0.2-0.8,0.5-1.1c0.1-0.1,0.3-0.3,0.4-0.3c0.2-0.1,0.3-0.1,0.4-0.1l0,0l0,0c0.3,0,0.6,0.1,0.8,0.3
		c0.2,0.2,0.3,0.4,0.3,0.6C219.7,218.9,219.7,219.2,219.7,219.2c0,0,0-0.2-0.1-0.6c-0.1-0.2-0.1-0.4-0.3-0.5
		c-0.2-0.1-0.4-0.2-0.7-0.2l0,0c-0.1,0-0.3,0.1-0.4,0.1c-0.1,0-0.2,0.1-0.3,0.3c-0.2,0.2-0.3,0.6-0.4,0.9c-0.1,0.5,0.2,1,0.6,1.2
		c0.4,0.2,0.8,0.1,1.1-0.1c0.3-0.2,0.4-0.5,0.5-0.7C219.6,219.3,219.6,219.2,219.7,219.2z"/>
	<path class="st10" d="M264.3,153.2c0,0-0.6-0.4-1.6-0.9c-0.5-0.3-1.1-0.5-1.8-0.7c-0.7-0.2-1.5-0.4-2.4-0.4c-0.9,0-1.7,0-2.4,0.1
		c-0.7,0.1-1.4,0.3-2,0.5c-1.1,0.4-1.7,0.8-1.8,0.8c0,0,0.1-0.1,0.4-0.3c0.1-0.1,0.3-0.2,0.5-0.3c0.2-0.1,0.5-0.2,0.7-0.3
		c0.5-0.2,1.2-0.4,2-0.6c0.8-0.1,1.6-0.2,2.5-0.2c0.9,0.1,1.7,0.2,2.4,0.4c0.7,0.2,1.4,0.5,1.9,0.8c0.3,0.1,0.5,0.3,0.7,0.4
		c0.2,0.1,0.4,0.2,0.5,0.4C264.2,153,264.3,153.1,264.3,153.2z"/>
	<path class="st21" d="M220.9,192.5c0.2-0.6,0.4-1.2,0.6-1.8c1.1-3.5,2.4-7.6,3.9-12.2c0.8-2.3,1.6-4.7,2.5-7.1
		c0.2-0.6,0.5-1.2,0.7-1.8c0.1-0.3,0.3-0.6,0.4-0.9l0.2-0.4l0.3-0.4c0.7-1.1,1.6-2.2,2.5-3.2c0.3-0.4,0.6-0.7,1-1.1
		c1.4-1.4,2.8-2.8,4-3.9c0.7-0.6,1.3-1.2,2-1.7l0,0l0-0.1c0.3-2.2,0.6-4.3,0.9-6.3c1.4-0.2,2.8-0.4,4.2-0.5l0,0l0,0
		c1.2-1.2,2.3-2.3,3.4-3.3c-0.3,0.8-1.3,2.6-2.4,3.8c-0.2,0.2-2.1,1.5-3.8,1.3c0,0,0,0,0,0c-0.6,5.8-1.2,8-3.7,9.5
		c-2.6,1.6-4.5,4.2-6.2,6.9c-2.8,4.4-3.9,10.1-5.9,14.9C224,187.1,223,189.8,220.9,192.5z M228.3,169.5c0.2-0.7,0.4-1.2,0.5-1.4
		c0.2-0.3,0.6-0.9,1.3-1.7c-0.3,0.4-0.6,0.8-0.8,1.2L229,168l-0.2,0.5c-0.2,0.3-0.3,0.6-0.4,0.9
		C228.3,169.4,228.3,169.5,228.3,169.5z"/>
	<path class="st18" d="M220.8,192.6c0,0,5.6-17.8,7.5-23.2c0,0,0-0.1,0-0.1c0.1-0.3,0.3-0.6,0.4-0.9l0.2-0.5l0.3-0.4
		c0.3-0.4,0.5-0.8,0.8-1.2c0.8-0.9,1.7-1.9,2.8-3c-0.3,0.3-0.6,0.7-1,1.1c-0.9,1-1.7,2.1-2.5,3.2l-0.3,0.4l-0.2,0.4
		c-0.2,0.3-0.3,0.6-0.4,0.9c-0.3,0.6-0.5,1.2-0.7,1.8c-0.9,2.5-1.7,4.9-2.5,7.1c-1.5,4.6-2.8,8.7-3.9,12.2c-0.2,0.6-0.4,1.3-0.6,1.8
		C220.9,192.5,220.8,192.6,220.8,192.6z M236.9,159.5c1.1-1.1,1.9-1.8,1.9-1.8c0.4-2.2,0.6-4.2,0.9-6.4c0,0,0,0,0,0
		c0.1,0,4.3-0.5,4.3-0.5s2.2-2.1,3.5-3.4c0,0,0,0.1,0,0.2c-1.1,1-2.2,2.1-3.4,3.3l0,0l0,0c-1.3,0.2-2.7,0.3-4.2,0.5
		c-0.3,2-0.6,4.1-0.9,6.3l0,0l0,0C238.2,158.3,237.5,158.9,236.9,159.5z M239.7,151.2C239.7,151.2,239.7,151.2,239.7,151.2
		L239.7,151.2z"/>
	<path class="st21" d="M248.4,250.4c3.8-11.4,7.4-22.2,10.8-32.2c1.1-3,1.7-6,2.4-8.9c0.7-2.9,1.2-5.8,1.8-8.5
		c1.1-5.5,2.1-10.6,3-15.3c0.4-2,0.7-3.9,1.1-5.8C265.4,204.8,259.7,230.8,248.4,250.4z"/>
	<path class="st23" d="M247.6,251.7c0,0,1.1-3,2.6-7.3c-0.8,2.3-1.6,4.6-2.4,7C247.7,251.5,247.7,251.6,247.6,251.7z M261.9,207.4
		c0.8-3.7,1.7-8.2,2.6-12.4c-0.4,1.8-0.7,3.7-1.1,5.7C262.9,202.9,262.4,205.1,261.9,207.4z"/>
	<path class="st18" d="M247.8,251.4c0.8-2.3,1.6-4.7,2.3-7c3.3-9.5,8.7-25.1,9.7-28.7c0.4-1.4,1.1-4.4,1.9-8.2
		c0.5-2.3,1-4.6,1.4-6.8c0.4-1.9,0.8-3.8,1.1-5.7c1.7-8.3,3.1-15.8,3.1-15.8c0,0.1,0,0.3,0,0.4c-0.3,1.8-0.7,3.8-1.1,5.8
		c-0.9,4.7-1.9,9.8-3,15.3c-0.6,2.8-1.1,5.6-1.8,8.5c-0.7,2.9-1.3,5.9-2.4,8.9c-3.4,10-7,20.8-10.8,32.2
		C248.2,250.8,248,251.1,247.8,251.4z"/>
	<path class="st10" d="M259.2,136.9c0,0-0.1,0.1-0.3,0.2c-0.2,0.1-0.5,0.3-0.8,0.5c-0.7,0.4-1.7,1-2.8,1.6c-2.4,1.4-5.7,3.2-9.4,5.3
		c-1.4,0.8-2.8,1.6-4,2.3l0,0c-0.4,0.3-0.9,0.6-1.3,0.9c-0.4,0.3-0.8,0.6-1.2,0.9c-0.7,0.6-1.4,1.2-2,1.8l-0.1,0.1l0-0.1
		c-0.4-1.4-0.8-2.6-1-3.4c-0.1-0.4-0.2-0.7-0.3-0.9c-0.1-0.2-0.1-0.3-0.1-0.3c0,0,0.1,0.1,0.1,0.3c0.1,0.2,0.2,0.5,0.3,0.9
		c0.3,0.8,0.6,2,1.1,3.4l-0.1,0c0.6-0.6,1.2-1.2,2-1.8c0.4-0.3,0.8-0.6,1.2-0.9c0.4-0.3,0.9-0.6,1.3-0.9l0,0l0,0
		c1.3-0.7,2.6-1.5,4-2.3c3.7-2,7-3.9,9.4-5.2c1.2-0.6,2.2-1.2,2.9-1.6c0.3-0.2,0.6-0.3,0.8-0.4C259.1,136.9,259.2,136.9,259.2,136.9
		z"/>
	<path class="st10" d="M32.9,96.5c-0.1,0-1.6-3.7-3.5-8.4c-1.9-4.7-3.3-8.4-3.3-8.5c0.1,0,1.6,3.7,3.5,8.4
		C31.5,92.7,32.9,96.5,32.9,96.5z"/>
	<path class="st10" d="M41.6,81.7c0.1,0-0.3,2.7-0.8,6.1c-0.5,3.4-0.9,6.1-1,6.1c-0.1,0,0.3-2.7,0.8-6.1S41.5,81.7,41.6,81.7z"/>
	<path class="st10" d="M27.9,99.9c0,0.1-2.2-0.9-4.9-2.1c-2.7-1.2-4.9-2.2-4.8-2.3c0-0.1,2.2,0.9,4.9,2.1S27.9,99.8,27.9,99.9z"/>
	<path class="st24" d="M61.9,109.2c-3-10.2-13.6-15.5-23.5-11.8c-10,3.7-15.6,15-12.5,25.3c2.2,7.4,8.3,12.2,15.3,12.9
		c0.7,2.2,1.4,4.7,1.4,4.7l15.8-5.9c0,0-0.7-2.7-1.3-5C61.9,124.1,64.1,116.4,61.9,109.2z"/>
	<path class="st1" d="M56.3,135.2c0,0,0-0.1-0.1-0.2c-0.1-0.1-0.2-0.4-0.3-0.6c-0.2-0.6-0.6-1.4-1-2.5c-0.8-2.2-2-5.4-3.3-9.4
		c-0.3-1-0.6-2.1-0.9-3.2c-0.2-0.6-0.3-1.1-0.5-1.7c-0.2-0.6-0.3-1.2-0.3-1.8c0-0.3,0.1-0.7,0.2-1c0.2-0.3,0.4-0.6,0.7-0.7
		c0.3-0.1,0.7,0,0.9,0.2c0.3,0.2,0.5,0.5,0.6,0.8c0.2,0.6,0.1,1.4-0.3,2c-0.4,0.6-0.9,1.1-1.6,1.4c-0.6,0.3-1.4,0.4-2.1,0.3
		c-0.7-0.1-1.3-0.5-1.9-1c-0.5-0.5-0.9-1.1-1.2-1.9c-0.1-0.4-0.2-0.7-0.2-1.1c0-0.4,0.1-0.8,0.4-1.1c0.1-0.2,0.3-0.3,0.5-0.3
		c0.2,0,0.4,0,0.6,0c0.4,0.1,0.7,0.3,0.9,0.6c0.2,0.3,0.4,0.7,0.6,1c0.1,0.4,0.3,0.7,0.4,1.1c0.2,0.8,0.3,1.6,0.3,2.4
		c0,0.8-0.2,1.7-0.7,2.4c-0.2,0.4-0.5,0.7-0.8,1c-0.3,0.3-0.7,0.5-1.1,0.6c-0.4,0.1-0.8,0.1-1.2,0c-0.4-0.1-0.7-0.3-1-0.5
		c-0.6-0.5-1.1-1.1-1.5-1.8c-0.2-0.3-0.4-0.7-0.6-1c-0.2-0.3-0.4-0.7-0.5-1c-0.1-0.4-0.2-0.8-0.1-1.2c0.1-0.2,0.1-0.4,0.3-0.5
		c0.1-0.2,0.3-0.3,0.5-0.3c0.2,0,0.4,0,0.6,0.1c0.2,0.1,0.3,0.2,0.4,0.3c0.3,0.3,0.4,0.6,0.6,0.9c0.7,1.3,1,2.8,0.7,4.2
		c-0.1,0.7-0.5,1.4-0.9,1.9c-0.4,0.6-1,1-1.7,1.1c-0.7,0.2-1.3,0-1.9-0.3c-0.5-0.3-1-0.8-1.2-1.4c-0.1-0.3-0.2-0.6-0.2-0.9
		c0-0.3,0.1-0.6,0.3-0.9c0.1-0.1,0.2-0.2,0.4-0.3c0.2,0,0.3,0,0.5,0c0.3,0.1,0.5,0.4,0.6,0.6c0.3,0.5,0.5,1,0.7,1.6
		c0.2,0.5,0.4,1,0.5,1.5c1.4,4,2.5,7.2,3.2,9.5c0.4,1.1,0.6,2,0.8,2.6c0.1,0.3,0.1,0.5,0.2,0.7c0,0.2,0.1,0.2,0.1,0.2s0-0.1-0.1-0.2
		c0-0.2-0.1-0.4-0.2-0.7c-0.2-0.6-0.4-1.5-0.8-2.6c-0.7-2.2-1.8-5.5-3.2-9.4c-0.2-0.5-0.4-1-0.5-1.5c-0.2-0.5-0.3-1.1-0.7-1.5
		c-0.2-0.2-0.3-0.4-0.6-0.6c-0.2-0.1-0.6,0-0.7,0.2c-0.2,0.2-0.2,0.5-0.2,0.8c0,0.3,0.1,0.6,0.2,0.9c0.2,0.6,0.6,1,1.2,1.3
		c0.5,0.3,1.2,0.4,1.8,0.3c0.6-0.2,1.2-0.6,1.6-1.1c0.4-0.5,0.7-1.2,0.9-1.9c0.3-1.4,0-2.9-0.7-4.1c-0.2-0.3-0.3-0.6-0.6-0.9
		c-0.2-0.2-0.5-0.5-0.9-0.4c-0.3,0-0.6,0.4-0.7,0.7c-0.1,0.4-0.1,0.7,0.1,1.1c0.1,0.4,0.3,0.7,0.5,1c0.2,0.3,0.4,0.7,0.6,1
		c0.4,0.6,0.9,1.3,1.4,1.7c0.3,0.2,0.6,0.4,1,0.5c0.4,0.1,0.7,0.1,1.1,0c0.7-0.2,1.4-0.8,1.8-1.4c0.4-0.7,0.6-1.5,0.6-2.3
		c0-0.8-0.1-1.6-0.3-2.3c-0.2-0.7-0.4-1.5-0.9-2.1c-0.2-0.3-0.5-0.5-0.9-0.6c-0.3-0.1-0.7,0-1,0.3c-0.2,0.3-0.3,0.7-0.3,1
		c0,0.4,0.1,0.7,0.2,1.1c0.2,0.7,0.6,1.3,1.1,1.8c0.5,0.5,1.1,0.8,1.8,0.9c0.7,0.1,1.4,0,2-0.3c0.6-0.3,1.2-0.8,1.5-1.4
		c0.3-0.6,0.5-1.3,0.3-1.9c-0.1-0.3-0.3-0.6-0.6-0.7c-0.2-0.2-0.6-0.3-0.8-0.2c-0.3,0.1-0.5,0.3-0.7,0.6c-0.1,0.3-0.2,0.6-0.2,0.9
		c0,0.6,0.1,1.2,0.3,1.8c0.2,0.6,0.3,1.1,0.5,1.7c0.3,1.1,0.6,2.2,0.9,3.2c1.2,4,2.4,7.2,3.2,9.4c0.4,1.1,0.8,1.9,1,2.5
		c0.1,0.3,0.2,0.5,0.3,0.7C56.3,135.1,56.3,135.2,56.3,135.2z"/>
	<path class="st10" d="M42.9,134c0,0-0.1,0-0.2,0c-0.2,0-0.4,0-0.7,0c-0.6,0-1.4-0.1-2.4-0.3c-1-0.2-2.2-0.6-3.5-1.1
		c-1.2-0.6-2.5-1.3-3.8-2.4c-1.2-1-2.2-2.2-3-3.3c-0.8-1.1-1.4-2.3-1.8-3.3c-0.4-1-0.7-1.8-0.8-2.4c-0.1-0.3-0.1-0.5-0.2-0.7
		c0-0.2,0-0.2,0-0.2c0,0,0,0.1,0.1,0.2c0,0.2,0.1,0.4,0.2,0.7c0.2,0.6,0.4,1.4,0.8,2.4c0.4,1,1,2.1,1.8,3.2c0.8,1.1,1.8,2.3,3,3.3
		c1.2,1,2.5,1.8,3.7,2.4c1.2,0.6,2.4,0.9,3.4,1.1c1,0.2,1.8,0.3,2.4,0.4c0.3,0,0.5,0,0.7,0C42.9,134,42.9,134,42.9,134z"/>
	<path class="st10" d="M25.8,116.6c0,0,0.1,0.4,0.1,1c0,0.6,0,1,0,1c0,0-0.1-0.4-0.1-1C25.8,117,25.8,116.6,25.8,116.6z"/>
	<path class="st10" d="M61.2,114.7c0,0,0-0.1,0-0.2c0-0.1,0-0.3-0.1-0.6c0-0.1,0-0.3,0-0.4c0-0.2-0.1-0.3-0.1-0.5
		c-0.1-0.4-0.1-0.8-0.2-1.2c-0.1-0.2-0.1-0.5-0.2-0.7c-0.1-0.2-0.1-0.5-0.2-0.7c-0.1-0.5-0.4-1-0.6-1.6c-0.5-1.1-1.1-2.3-1.8-3.4
		c-0.8-1.1-1.6-2.1-2.5-2.9c-0.4-0.4-0.8-0.8-1.3-1.1c-0.2-0.2-0.4-0.3-0.6-0.4c-0.2-0.1-0.4-0.3-0.6-0.4c-0.4-0.2-0.7-0.4-1-0.6
		c-0.2-0.1-0.3-0.2-0.4-0.2c-0.1-0.1-0.3-0.1-0.4-0.2c-0.2-0.1-0.4-0.2-0.5-0.2c-0.1-0.1-0.2-0.1-0.2-0.1c0,0,0.1,0,0.2,0.1
		c0.1,0.1,0.3,0.1,0.5,0.2c0.1,0,0.2,0.1,0.4,0.2c0.1,0.1,0.3,0.1,0.4,0.2c0.3,0.2,0.7,0.3,1,0.6c0.2,0.1,0.4,0.2,0.6,0.4
		c0.2,0.1,0.4,0.3,0.6,0.4c0.4,0.3,0.8,0.7,1.3,1.1c0.9,0.8,1.7,1.8,2.5,2.9c0.8,1.1,1.4,2.3,1.8,3.4c0.2,0.6,0.4,1.1,0.6,1.6
		c0.1,0.3,0.2,0.5,0.2,0.8c0.1,0.2,0.1,0.5,0.2,0.7c0.1,0.4,0.1,0.9,0.2,1.2c0,0.2,0.1,0.4,0.1,0.5c0,0.2,0,0.3,0,0.4
		c0,0.2,0,0.4,0,0.6C61.2,114.7,61.2,114.7,61.2,114.7z"/>
	<path class="st1" d="M30.9,122.2c-0.7,0-1.4-0.4-1.9-0.9c-1.1-1.2-1.7-3.8-1.7-5.5c0-5,1.4-8.3,4.6-11.8c1.1-1.2,2.5-2,4.1-2.1
		c0.2,0,0.4,0,0.7,0c0.8,0.1,1.5,0.3,1.9,0.8c1,1.2,0.4,3.2-0.6,4.6c-1,1.3-2.4,2.4-3.1,3.9c-0.8,1.9-0.4,4-0.5,6
		c-0.1,2.2-1,4.8-3.2,4.9C31.1,122.2,31,122.2,30.9,122.2z"/>
	<path class="st1" d="M43.5,104.9c-0.1,0-0.2,0-0.3,0c-1.1-0.2-1.9-1.2-2-2.4c-0.1-1,0.3-2,1-2.7c0.5-0.5,1.3-0.7,2.1-0.7
		c0.6,0,1.2,0.2,1.6,0.6c0.8,0.8,0.8,2.6,0.3,3.7C45.5,104.4,44.5,104.9,43.5,104.9z"/>
	<path class="st10" d="M50.9,147.8c0,0,0.8,0.2,1.3,0.6c0.3,0.2,0.6,0.2,1,0.1l3.2-1.2c0.4-0.1,0.6-0.4,0.8-0.8
		c0.1-0.5,0.4-1,0.8-1.3L50.9,147.8z"/>
	<path class="st25" d="M44.5,140c0,0.1,2.3,4.9,3.2,6.8c0.4,0.8,1.1,1.3,1.9,1.4c0.3,0,0.6,0,1-0.1c1.4-0.5,7-2.6,7-2.6
		s1.8-0.7,1.8-2.3c0-1.7-1-8.2-1-8.2L44.5,140z"/>
	<path class="st25" d="M59.7,142.2l-12.3,4.7c-0.2,0.1-0.4,0-0.5-0.2l0,0c-0.1-0.2,0-0.4,0.2-0.5l12.3-4.7c0.2-0.1,0.4,0,0.5,0.2
		l0,0C60,141.9,59.9,142.1,59.7,142.2z"/>
	<path class="st10" d="M59.7,142.2c0,0,0.1,0,0.2-0.2c0-0.1,0.1-0.2,0-0.3c0-0.1-0.2-0.2-0.3-0.2c-0.7,0.2-1.7,0.6-2.9,1.1
		c-2.4,0.9-5.8,2.2-9.5,3.6c-0.1,0-0.2,0.1-0.2,0.2c0,0.1,0,0.1,0,0.2c0,0.1,0,0.1,0.1,0.1c0.1,0.1,0.2,0.1,0.3,0.1
		c0.1,0,0.2-0.1,0.3-0.1c0.5-0.2,0.9-0.3,1.3-0.5c0.9-0.3,1.7-0.7,2.5-1c1.6-0.6,3.1-1.2,4.3-1.6c1.2-0.5,2.2-0.8,2.9-1.1
		c0.3-0.1,0.6-0.2,0.8-0.3C59.5,142.2,59.6,142.2,59.7,142.2C59.7,142.2,59.7,142.2,59.7,142.2L59.7,142.2c-0.1,0.1-0.2,0.1-0.3,0.1
		c-0.2,0.1-0.4,0.2-0.8,0.3c-0.7,0.3-1.7,0.6-2.9,1.1c-1.2,0.5-2.7,1-4.3,1.6c-0.8,0.3-1.6,0.6-2.5,1c-0.4,0.2-0.9,0.3-1.3,0.5
		l-0.2,0.1c-0.1,0-0.1,0-0.2,0.1c-0.1,0-0.3-0.1-0.4-0.2c0-0.1-0.1-0.1-0.1-0.2c0-0.1,0-0.1,0-0.2c0-0.1,0.1-0.3,0.3-0.3
		c3.7-1.4,7.1-2.7,9.5-3.6c1.2-0.5,2.2-0.8,2.9-1.1c0.2,0,0.3,0.1,0.4,0.2c0.1,0.1,0,0.3,0,0.4C59.8,142.1,59.7,142.2,59.7,142.2z"
		/>
	<path class="st25" d="M59.4,140.5l-12.8,4.9c-0.2,0.1-0.4,0-0.5-0.2l0,0c-0.1-0.2,0-0.4,0.2-0.5l12.8-4.9c0.2-0.1,0.4,0,0.5,0.2
		l0,0C59.7,140.2,59.6,140.4,59.4,140.5z"/>
	<path class="st10" d="M59.4,140.5c0,0,0.1,0,0.2-0.2c0-0.1,0-0.2,0-0.4c-0.1-0.1-0.2-0.2-0.4-0.2c-0.7,0.3-1.7,0.7-3,1.2
		c-2.5,1-6,2.3-9.9,3.8c-0.1,0-0.2,0.1-0.2,0.2c0,0.1,0,0.1,0,0.2c0,0.1,0,0.1,0.1,0.1c0.1,0.1,0.2,0.1,0.3,0.1
		c0.1,0,0.2-0.1,0.3-0.1c0.5-0.2,0.9-0.4,1.4-0.5c0.9-0.3,1.8-0.7,2.6-1c1.7-0.6,3.2-1.2,4.4-1.7c1.3-0.5,2.3-0.9,3-1.1
		c0.3-0.1,0.6-0.2,0.8-0.3C59.2,140.5,59.3,140.5,59.4,140.5C59.4,140.5,59.4,140.5,59.4,140.5C59.4,140.5,59.4,140.5,59.4,140.5
		c-0.1,0.1-0.2,0.1-0.3,0.1c-0.2,0.1-0.5,0.2-0.8,0.3c-0.7,0.3-1.7,0.7-3,1.2c-1.3,0.5-2.8,1.1-4.4,1.7c-0.8,0.3-1.7,0.7-2.6,1
		c-0.5,0.2-0.9,0.3-1.4,0.5c-0.1,0-0.2,0.1-0.4,0.1c-0.1,0-0.3,0-0.4-0.1c0-0.1-0.1-0.1-0.1-0.2c0-0.1,0-0.2,0-0.2
		c0-0.2,0.1-0.3,0.3-0.3c3.9-1.5,7.3-2.8,9.9-3.7c1.3-0.5,2.3-0.9,3-1.1c0.2,0,0.4,0.1,0.4,0.2c0.1,0.1,0.1,0.3,0,0.4
		C59.6,140.5,59.4,140.5,59.4,140.5z"/>
	<path class="st25" d="M59.1,138.8l-13.2,5c-0.2,0.1-0.4,0-0.5-0.2l0,0c-0.1-0.2,0-0.4,0.2-0.5l13.2-5c0.2-0.1,0.4,0,0.5,0.2l0,0
		C59.4,138.5,59.3,138.7,59.1,138.8z"/>
	<path class="st10" d="M59.1,138.8c0,0,0.1,0,0.2-0.2c0-0.1,0-0.2,0-0.4c-0.1-0.1-0.2-0.2-0.4-0.2c-0.7,0.3-1.8,0.7-3.1,1.2
		c-2.6,1-6.2,2.4-10.1,3.9c-0.1,0-0.2,0.1-0.2,0.2c0,0.1,0,0.1,0,0.2c0,0.1,0,0.1,0.1,0.2c0.1,0.1,0.2,0.1,0.3,0.1
		c0.1,0,0.2-0.1,0.4-0.1c0.5-0.2,1-0.4,1.4-0.5c0.9-0.4,1.8-0.7,2.7-1c1.7-0.6,3.3-1.2,4.6-1.7c1.3-0.5,2.3-0.9,3.1-1.1
		c0.4-0.1,0.6-0.2,0.8-0.3C58.9,138.9,58.9,138.9,59.1,138.8C59,138.8,59.1,138.8,59.1,138.8C59.1,138.8,59,138.8,59.1,138.8
		c-0.1,0.1-0.2,0.1-0.3,0.1c-0.2,0.1-0.5,0.2-0.8,0.3c-0.7,0.3-1.8,0.7-3.1,1.2c-1.3,0.5-2.8,1.1-4.5,1.7c-0.9,0.3-1.8,0.7-2.7,1
		c-0.5,0.2-0.9,0.4-1.4,0.5c-0.1,0-0.2,0.1-0.4,0.1c-0.1,0-0.3,0-0.4-0.1c-0.1-0.1-0.1-0.1-0.1-0.2c0-0.1,0-0.2,0-0.2
		c0-0.2,0.1-0.3,0.3-0.3c3.9-1.5,7.5-2.8,10.1-3.8c1.3-0.5,2.3-0.9,3.1-1.1c0.2-0.1,0.4,0.1,0.4,0.2c0.1,0.1,0.1,0.3,0,0.4
		C59.2,138.8,59.1,138.8,59.1,138.8z"/>
	<path class="st25" d="M58.8,137.1l-13.7,5.2c-0.2,0.1-0.4,0-0.5-0.2l0,0c-0.1-0.2,0-0.4,0.2-0.5l13.7-5.2c0.2-0.1,0.4,0,0.5,0.2
		l0,0C59.1,136.8,59,137,58.8,137.1z"/>
	<path class="st10" d="M58.8,137.1c0,0,0.1,0,0.2-0.2c0-0.1,0-0.2,0-0.4c-0.1-0.1-0.3-0.2-0.4-0.1c-0.8,0.3-1.8,0.7-3.2,1.2
		c-2.7,1-6.4,2.4-10.5,4c-0.1,0-0.2,0.1-0.2,0.3c0,0.1,0,0.2,0.1,0.3c0.1,0.1,0.2,0.1,0.3,0.1c0.1,0,0.3-0.1,0.4-0.1
		c0.5-0.2,1-0.4,1.5-0.6c1-0.4,1.9-0.7,2.8-1.1c1.8-0.7,3.4-1.3,4.7-1.8c1.3-0.5,2.4-0.9,3.2-1.2c0.4-0.1,0.7-0.2,0.9-0.3
		C58.6,137.2,58.7,137.2,58.8,137.1C58.8,137.1,58.8,137.1,58.8,137.1C58.8,137.1,58.8,137.1,58.8,137.1c-0.1,0.1-0.2,0.1-0.3,0.1
		c-0.2,0.1-0.5,0.2-0.9,0.3c-0.8,0.3-1.8,0.7-3.2,1.2c-1.3,0.5-2.9,1.1-4.7,1.8c-0.9,0.3-1.8,0.7-2.8,1.1c-0.5,0.2-1,0.4-1.5,0.6
		c-0.1,0-0.2,0.1-0.4,0.1c-0.1,0.1-0.3,0-0.4-0.1c-0.1-0.1-0.1-0.1-0.1-0.2c0-0.1,0-0.2,0-0.2c0-0.2,0.1-0.3,0.3-0.4
		c4.1-1.6,7.8-3,10.5-4c1.3-0.5,2.4-0.9,3.2-1.2c0.2-0.1,0.4,0,0.5,0.2c0.1,0.1,0.1,0.3,0,0.4C59,137,58.9,137.1,58.8,137.1
		C58.8,137.1,58.8,137.1,58.8,137.1z"/>
	<path class="st26" d="M41.2,136.3c0,0.1,1.3,3.2,1.9,4.7c0.2,0.6,0.7,1,1.3,1.1l0.9,0.2l13.6-5.1l0.6-0.7c0.4-0.5,0.6-1.2,0.4-1.8
		l-1.1-5.1L41.2,136.3z"/>
	<path class="st27" d="M48.3,146.6c0.2-0.1,0.5-0.2,0.7-0.3c0.9-0.3,1.7-0.7,2.5-1c1.6-0.6,3.1-1.2,4.3-1.6c1.2-0.5,2.2-0.9,2.9-1.1
		c0.2-0.1,0.4-0.2,0.6-0.2c-0.1,0.1-0.6,0.4-1,0.6c-0.9,0.4-1.8,0.8-2.7,1.1c-1.3,0.5-2.4,0.9-3.6,1.3
		C50.8,145.9,49.6,146.3,48.3,146.6z"/>
	<path class="st18" d="M47.9,146.6l11.4-4.3c0,0,0,0,0,0c-0.2,0.1-0.4,0.1-0.6,0.2c-0.7,0.3-1.7,0.6-2.9,1.1c-1.2,0.5-2.7,1-4.3,1.6
		c-0.8,0.3-1.7,0.6-2.5,1c-0.2,0.1-0.5,0.2-0.7,0.3C48.2,146.6,48,146.6,47.9,146.6z"/>
	<path class="st27" d="M47.4,145.1c0.3-0.1,0.6-0.2,0.9-0.4c0.9-0.3,1.8-0.7,2.6-1c1.7-0.6,3.2-1.2,4.4-1.7c1.3-0.5,2.3-0.9,3-1.2
		c0.3-0.1,0.6-0.2,0.8-0.3c-0.1,0.2-0.6,0.4-1.1,0.6c-1,0.4-1.9,0.8-2.9,1.2c-1.4,0.5-2.6,1-3.9,1.5C50,144.4,48.7,144.9,47.4,145.1
		z"/>
	<path class="st27" d="M58.8,140.9l0.3-0.1c0,0,0,0,0,0l0,0C59.1,140.8,59,140.8,58.8,140.9z"/>
	<path class="st18" d="M46.8,145.2l12-4.6c0.1,0,0.2-0.1,0.3-0.1c0,0,0,0,0,0c0,0,0,0,0,0c-0.2,0.1-0.4,0.2-0.8,0.3
		c-0.7,0.3-1.7,0.7-3,1.2c-1.3,0.5-2.8,1.1-4.4,1.7c-0.8,0.3-1.7,0.7-2.6,1c-0.3,0.1-0.6,0.2-0.9,0.4
		C47.2,145.2,47,145.2,46.8,145.2z"/>
	<path class="st27" d="M46.8,143.6c0.3-0.1,0.6-0.2,0.9-0.3c0.9-0.4,1.8-0.7,2.7-1c1.7-0.7,3.2-1.2,4.5-1.7c1.3-0.5,2.3-0.9,3.1-1.2
		c0.3-0.1,0.5-0.2,0.7-0.3c-0.1,0.1-0.6,0.5-1.1,0.6c-1,0.4-1.9,0.8-2.9,1.2c-1.4,0.5-2.6,1-3.9,1.5
		C49.4,142.8,48.1,143.3,46.8,143.6z"/>
	<path class="st18" d="M46.3,143.6l12.3-4.7c0,0,0,0,0,0c-0.2,0.1-0.4,0.2-0.7,0.3c-0.7,0.3-1.8,0.7-3.1,1.2
		c-1.3,0.5-2.8,1.1-4.5,1.7c-0.9,0.3-1.8,0.7-2.7,1c-0.3,0.1-0.6,0.2-0.9,0.3C46.6,143.6,46.4,143.6,46.3,143.6z"/>
	<path class="st27" d="M46.7,141.9l10.9-4.1c-0.2,0.1-0.4,0.2-0.6,0.3c-1,0.4-1.9,0.8-2.9,1.2c-1.4,0.5-2.6,1-3.9,1.5
		C49,141.2,47.9,141.6,46.7,141.9z"/>
	<path class="st28" d="M45.2,142.4l-0.1,0l-0.5-0.1l-0.2,0c-0.6-0.1-1.1-0.6-1.3-1.1c-0.6-1.6-1.9-4.6-1.9-4.7l17.6-6.6l1.1,5.1
		c0,0.2,0.1,0.5,0,0.7c0,0.4-0.2,0.8-0.5,1.1l-0.6,0.7l-1.4,0.5c0.3-0.2,0.5-0.3,0.5-0.4l-12.3,4.6c0.3,0,0.6-0.1,0.9-0.2
		L45.2,142.4L45.2,142.4z"/>
	<path class="st29" d="M45.8,142.1l12.3-4.7c0,0.1-0.3,0.2-0.5,0.4l-10.9,4.1C46.4,141.9,46.1,142,45.8,142.1z"/>
	<path class="st10" d="M59.8,135.5c0,0-3.6,1.4-8.2,3.1c-4.5,1.7-8.2,3.1-8.2,3c0,0,3.6-1.4,8.2-3.1
		C56.2,136.8,59.8,135.5,59.8,135.5z"/>
	<path class="st10" d="M58.6,129.7c0,0-4,1.6-8.8,3.5c-4.9,1.9-8.9,3.4-8.9,3.3c0,0,3.9-1.6,8.9-3.5
		C54.6,131.2,58.6,129.7,58.6,129.7z"/>
	<path class="st1" d="M215.5,111l-5.8-1.1c-2.7,2.4-5.9,4.1-9.5,4.7c-10.4,1.9-19.9-5.3-21.2-16.1c-1.3-10.8,6.1-21.1,16.5-23.1
		c10.4-1.9,19.9,5.3,21.2,16.1c0.5,4.5-0.4,8.9-2.5,12.7l0,0L215.5,111z"/>
	<path class="st10" d="M215.5,111c0,0,0-0.2-0.1-0.4c-0.1-0.3-0.2-0.7-0.3-1.3c-0.2-1.1-0.6-2.8-1-5l0.1,0l0,0l-0.1,0l0-0.1
		c1.3-2.3,2.5-5.6,2.6-9.5c0-1,0-2-0.1-3.1c-0.2-1-0.3-2.1-0.7-3.2c-0.6-2.1-1.6-4.3-3.1-6.2c-1.4-1.9-3.3-3.6-5.6-4.8
		c-2.3-1.2-4.9-2-7.7-2.1c-5.5-0.3-11.7,2.3-15.8,7.3c-2.1,2.5-3.6,5.5-4.3,8.6c-0.7,3.1-0.7,6.2-0.1,9.1c0.6,2.9,1.9,5.4,3.5,7.6
		c1.6,2.1,3.6,3.7,5.7,4.9c2.1,1.1,4.4,1.8,6.5,2c0.3,0,0.5,0,0.8,0.1c0.3,0,0.5,0,0.8,0c0.5,0,1,0,1.6,0c1-0.1,2-0.2,2.9-0.5
		c3.7-0.9,6.6-2.8,8.5-4.5l0,0c1.9,0.4,3.3,0.7,4.3,0.9c0.5,0.1,0.9,0.2,1.1,0.2C215.4,111,215.5,111,215.5,111s-0.1,0-0.4-0.1
		c-0.3,0-0.6-0.1-1.1-0.2c-1-0.2-2.5-0.5-4.3-0.8l0,0c-1.9,1.7-4.8,3.6-8.5,4.6c-0.9,0.2-1.9,0.3-3,0.5c-0.5,0-1,0-1.6,0
		c-0.3,0-0.5,0-0.8,0c-0.3,0-0.5,0-0.8-0.1c-2.2-0.2-4.4-0.8-6.6-2c-2.1-1.1-4.2-2.8-5.8-4.9c-1.6-2.1-2.9-4.7-3.5-7.6
		c-0.6-2.9-0.6-6.1,0.1-9.2c0.7-3.1,2.2-6.1,4.3-8.7c0.2-0.3,0.5-0.6,0.8-0.9l0.8-0.9l0.9-0.8c0.3-0.3,0.6-0.5,0.9-0.8
		c0.3-0.2,0.6-0.5,1-0.7c0.3-0.2,0.7-0.4,1-0.6c0.3-0.2,0.7-0.4,1-0.6c0.3-0.2,0.7-0.3,1-0.5c2.8-1.3,5.8-1.8,8.6-1.7
		c2.8,0.1,5.5,0.9,7.8,2.2c2.3,1.3,4.2,3,5.7,4.9c1.5,1.9,2.5,4.1,3.1,6.2c0.3,1.1,0.5,2.2,0.7,3.2c0.1,1.1,0.2,2.1,0.1,3.1
		c-0.1,4-1.4,7.3-2.7,9.6l-0.1-0.1l0,0l0.1,0l0,0c0.4,2.2,0.7,3.9,1,5.1c0.1,0.6,0.2,1,0.2,1.3C215.5,110.9,215.5,111,215.5,111z"/>
	<path class="st30" d="M189,94.9l2.6-2.5l4.4,4.4l8.1-8.2l2.1,2.6l-10.9,10.5L189,94.9z"/>
	<path class="st11" d="M163.1,108.6c0.9-0.1,2.1-0.1,3.8-0.2l0,0c1.3,1.6,3.3,3.5,6.3,4.7c0.7,0.3,1.5,0.5,2.4,0.7
		c0.4,0.1,0.9,0.1,1.3,0.2c0.2,0,0.4,0.1,0.7,0.1c0.2,0,0.5,0,0.7,0c1.8,0.1,3.8-0.2,5.8-0.9c0.5-0.2,1-0.4,1.5-0.6
		c-0.1-0.1-0.3-0.1-0.4-0.2c-2.1-1.1-4.1-2.7-5.7-4.8c-1.6-2.1-2.8-4.6-3.4-7.5c-0.6-2.8-0.6-5.9,0.1-9c0.7-3.1,2.2-6,4.2-8.5
		c0.2-0.3,0.5-0.6,0.8-0.9l0.8-0.9l0.3-0.3c-0.2,0-0.3,0-0.5-0.1c-2.4-0.2-4.7,0.1-6.8,0.9c-2.1,0.8-4,2-5.6,3.4
		c-1.6,1.4-2.8,3.1-3.7,4.8c-0.5,0.8-0.8,1.7-1.1,2.6c-0.3,0.9-0.5,1.7-0.7,2.5c-0.6,3.3-0.2,6.2,0.4,8.3l0,0.1
		c-0.8,1.8-1.4,3.1-1.8,4.1c-0.2,0.5-0.4,0.8-0.5,1.1c-0.1,0.2-0.2,0.4-0.2,0.4s0.1,0,0.3,0C162.3,108.7,162.7,108.6,163.1,108.6z"
		/>
	<path class="st10" d="M163.1,108.6c0,0-0.1,0-0.3,0c-0.2,0-0.6,0-1,0.1l0,0l0,0c0.5-1.1,1.3-3,2.4-5.5l0,0l0,0l0-0.1l0-0.2
		c0-0.1-0.1-0.2-0.1-0.3c-0.1-0.2-0.1-0.5-0.2-0.7c-0.1-0.5-0.2-1-0.3-1.5c-0.1-1.1-0.2-2.2-0.1-3.4c0.1-1.2,0.3-2.5,0.7-3.8
		c0.2-0.7,0.5-1.3,0.7-2c0.3-0.7,0.6-1.3,1-2c1.5-2.6,3.7-5,6.6-6.7c2.9-1.6,6.4-2.5,9.9-2l0.3,0l-0.2,0.2c-0.1,0.1-0.2,0.2-0.3,0.3
		l0,0c-2.4,2.4-4.4,5.5-5.5,9c-1.4,4.8-1,9.9,0.8,13.9c1.8,4,4.9,7,8.2,8.6l0.2,0.1l-0.2,0.1c-0.9,0.4-1.8,0.8-2.7,1
		c-0.9,0.2-1.8,0.4-2.6,0.5c-1.7,0.2-3.3,0-4.8-0.3l0,0l0,0c-0.5-0.2-1-0.3-1.5-0.4c-0.5-0.2-1-0.4-1.4-0.6
		c-0.9-0.4-1.7-0.9-2.4-1.4c-1.4-1-2.5-2.1-3.2-3.1c0,0-0.1,0-0.2,0c-0.1,0-0.1,0-0.2,0c-0.1,0-0.3,0-0.4,0c-0.3,0-0.5,0-0.8,0
		c-0.5,0-0.9,0-1.2,0.1c-0.3,0-0.6,0-0.7,0C163.2,108.6,163.1,108.6,163.1,108.6s0.1,0,0.3,0c0.2,0,0.4,0,0.7-0.1
		c0.3,0,0.7-0.1,1.2-0.1c0.2,0,0.5,0,0.8-0.1c0.1,0,0.3,0,0.4,0c0.1,0,0.1,0,0.2,0l0.1,0c0,0,0,0,0.1,0l0,0l0,0c0.8,1,1.8,2.1,3.2,3
		c1.4,1,3.2,1.8,5.4,2.3l0,0c0.7,0.1,1.5,0.3,2.3,0.3c0.8,0,1.6,0,2.5-0.1c0.8-0.1,1.7-0.3,2.6-0.5c0.9-0.2,1.7-0.6,2.6-1l0,0.2
		c-3.4-1.6-6.5-4.6-8.3-8.7c-1.9-4.1-2.2-9.2-0.8-14c1.1-3.6,3.1-6.7,5.5-9.1l0,0l0,0c0.1-0.1,0.2-0.2,0.3-0.3l0.1,0.2
		c-3.4-0.4-6.9,0.4-9.7,2c-2.9,1.6-5.1,4-6.6,6.6c-0.4,0.6-0.7,1.3-1,1.9c-0.3,0.7-0.5,1.3-0.7,1.9c-0.4,1.3-0.6,2.6-0.7,3.8
		c-0.1,1.2-0.1,2.3,0.1,3.4c0.1,0.5,0.1,1,0.2,1.5c0.1,0.2,0.1,0.5,0.2,0.7c0,0.1,0.1,0.2,0.1,0.3l0,0.2l0,0.1c0,0,0,0.1,0,0.2l0,0
		c-1.1,2.5-1.9,4.4-2.4,5.5l0,0c0.4,0,0.8,0,1-0.1C163,108.6,163.1,108.6,163.1,108.6z"/>
	<path class="st31" d="M324.9,125.3l-5.6-0.4c-1.1-0.1-1.9-1.1-1.8-2.3l3.6-33.1c0.1-1.2,1.1-2.1,2.2-2l5.6,0.4
		c1.1,0.1,1.9,1.1,1.8,2.3l-3.6,33.1C327,124.4,326,125.3,324.9,125.3z"/>
	<path class="st31" d="M292.6,124l-5.6-0.4c-1.2-0.1-2-1.2-1.9-2.4l1.4-12.6c0.1-1.2,1.2-2.2,2.4-2.1l5.6,0.4c1.2,0.1,2,1.2,1.9,2.4
		l-1.4,12.6C294.8,123.2,293.7,124.1,292.6,124z"/>
	<path class="st31" d="M308.2,125.4L303,125c-1.2-0.1-2.1-1.2-2-2.6l2.4-21.5c0.1-1.3,1.3-2.3,2.5-2.2l5.2,0.4
		c1.2,0.1,2.1,1.2,2,2.6l-2.4,21.5C310.6,124.5,309.5,125.5,308.2,125.4z"/>
	<path class="st10" d="M328.1,74.7c0,0-0.1,0.1-0.3,0.3c-0.2,0.2-0.5,0.5-0.9,0.9c-0.8,0.8-1.9,1.9-3.2,3.3
		c-2.8,2.8-6.7,6.6-11.3,11.1l-0.1,0.1l-0.1-0.1c-1.8-1.5-3.7-3.1-5.7-4.7l0.3,0c-0.1,0.1-0.2,0.2-0.3,0.3c-5.8,6-11.1,11.4-15,15.3
		l-0.1,0.1l-0.1-0.1c-1.9-1.7-3.4-3.2-4.5-4.2c-0.5-0.5-0.9-0.9-1.2-1.2c-0.3-0.3-0.4-0.4-0.4-0.4c0,0,0.2,0.1,0.5,0.4
		c0.3,0.3,0.7,0.6,1.3,1.1c1.1,1,2.7,2.4,4.6,4.1l-0.2,0c3.8-4,9.1-9.4,14.9-15.4c0.1-0.1,0.2-0.2,0.3-0.3l0.1-0.1l0.1,0.1
		c2,1.6,3.9,3.2,5.7,4.7l-0.3,0c4.6-4.4,8.5-8.2,11.3-11c1.4-1.3,2.5-2.4,3.3-3.2c0.4-0.3,0.7-0.6,0.9-0.8
		C328,74.8,328.1,74.7,328.1,74.7z"/>
	<path class="st10" d="M327.5,83.4c-0.1,0,0-0.9,0.1-2.4c0.1-1.5,0.3-3.6,0.6-5.9l0.2,0.2c-0.1,0-0.1,0-0.2,0
		c-2.3,0.2-4.3,0.4-5.8,0.5c-1.5,0.1-2.4,0.2-2.4,0.1c0-0.1,0.9-0.2,2.4-0.4c1.5-0.2,3.5-0.4,5.8-0.7c0.1,0,0.1,0,0.2,0l0.2,0l0,0.2
		c-0.3,2.3-0.5,4.4-0.7,5.9C327.8,82.5,327.6,83.4,327.5,83.4z"/>
</g>
</svg>
